<?xml version="1.0" standalone="no"?>
<!DOCTYPE svg PUBLIC "-//W3C//DTD SVG 1.1//EN" "http://www.w3.org/Graphics/SVG/1.1/DTD/svg11.dtd" >
<svg xmlns="http://www.w3.org/2000/svg">
<metadata></metadata>
<defs>
<font id="NineteenEightyPortableRegular" horiz-adv-x="583" >
<font-face units-per-em="2048" ascent="1552" descent="-496" />
<missing-glyph horiz-adv-x="389" />
<glyph horiz-adv-x="0" />
<glyph horiz-adv-x="2048" />
<glyph horiz-adv-x="389" />
<glyph unicode=" " horiz-adv-x="389" d="M0 -156h391v-26h-391v26zM0 -467h391v-29h-391v29zM0 1624v25h391v-25h-391zM0 1937v25h391v-25h-391zM8 -336h78v-86h-78v86zM8 1694v88h78v-88h-78zM106 -227h78v-88h-78v88zM106 1802v86h78v-86h-78zM203 -336h78v-86h-78v86zM203 1694v88h78v-88h-78zM301 -227h78 v-88h-78v88zM301 1802v86h78v-86h-78z" />
<glyph unicode="!" horiz-adv-x="389" d="M0 -156h391v-26h-391v26zM0 -467h391v-29h-391v29zM0 1624v25h391v-25h-391zM0 1937v25h391v-25h-391zM8 -336h78v-86h-78v86zM8 1694v88h78v-88h-78zM12 119l31 223l199 -27l-33 -225zM55 422l152 1083l196 -28l-151 -1084zM106 -227h78v-88h-78v88zM106 1802v86h78v-86 h-78zM203 -336h78v-86h-78v86zM203 1694v88h78v-88h-78zM301 -227h78v-88h-78v88zM301 1802v86h78v-86h-78z" />
<glyph unicode="&#x22;" d="M0 -156h586v-26h-586v26zM0 -467h586v-29h-586v29zM0 1624v25h586v-25h-586zM0 1937v25h586v-25h-586zM8 -336h78v-86h-78v86zM8 1694v88h78v-88h-78zM106 -227h78v-88h-78v88zM106 1495l156 6l29 -528l-156 -6zM106 1802v86h78v-86h-78zM203 -336h78v-86h-78v86z M203 1694v88h78v-88h-78zM301 -227h78v-88h-78v88zM301 1802v86h78v-86h-78zM395 -336h78v-86h-78v86zM395 1694v88h78v-88h-78zM399 1509l156 9l29 -529l-156 -8zM496 -227h75v-88h-75v88zM496 1802v86h75v-86h-75z" />
<glyph unicode="#" d="M0 -156h586v-26h-586v26zM0 -467h586v-29h-586v29zM0 1624v25h586v-25h-586zM0 1937v25h586v-25h-586zM8 -336h78v-86h-78v86zM8 1694v88h78v-88h-78zM18 1096l31 71l121 -12l47 105l-129 12l31 69l129 -12l82 178l78 -6l-78 -178l100 -10l80 178l78 -6l-78 -176l119 -11 l-31 -73l-119 10l-47 -100l127 -13l-31 -71l-127 10l-79 -176l-78 8l80 176l-105 10l-82 -178l-78 8l80 176zM106 -227h78v-88h-78v88zM106 1802v86h78v-86h-78zM203 -336h78v-86h-78v86zM203 1694v88h78v-88h-78zM248 1149l106 -10l47 104l-106 10zM301 -227h78v-88h-78v88 zM301 1802v86h78v-86h-78zM395 -336h78v-86h-78v86zM395 1694v88h78v-88h-78zM496 -227h75v-88h-75v88zM496 1802v86h75v-86h-75z" />
<glyph unicode="$" d="M0 -156h586v-26h-586v26zM0 -467h586v-29h-586v29zM0 1624v25h586v-25h-586zM0 1937v25h586v-25h-586zM8 -336h78v-86h-78v86zM8 1694v88h78v-88h-78zM66 1155q0 208 178 242l-2 127h69l2 -127q107 -13 151 -81t44 -216q0 -5 -1 -27t-1 -37v-78h-164l-2 218 q0 43 -13.5 66.5t-35.5 23.5q-53 0 -53 -127q0 -98 137 -275t137 -332q0 -210 -178 -247l2 -160l-70 -4l-2 162q-106 14 -150 80.5t-44 214.5q0 5 1 27t1 40v78h164v-74q0 -15 -1.5 -35.5t-1.5 -25.5q0 -168 60 -168q49 0 49 80q0 128 -78 237q-12 17 -47.5 66t-48.5 68.5 t-38.5 62t-35.5 71t-19 69t-9 81.5zM106 -227h78v-88h-78v88zM106 1802v86h78v-86h-78zM203 -336h78v-86h-78v86zM203 1694v88h78v-88h-78zM301 -227h78v-88h-78v88zM301 1802v86h78v-86h-78zM395 -336h78v-86h-78v86zM395 1694v88h78v-88h-78zM496 -227h75v-88h-75v88z M496 1802v86h75v-86h-75z" />
<glyph unicode="%" d="M0 -156h586v-26h-586v26zM0 -467h586v-29h-586v29zM0 1624v25h586v-25h-586zM0 1937v25h586v-25h-586zM8 -336h78v-86h-78v86zM8 1694v88h78v-88h-78zM37 1221q0 73 3 116t10 73.5t23.5 43.5t37 18t57.5 5q62 0 94 -52.5t31 -154.5l-2 -123q0 -135 -131 -135 q-123 0 -123 209zM106 -227h78v-88h-78v88zM106 1802v86h78v-86h-78zM131 1362l8 -238q0 -39 29 -39t29 41l-9 238q-3 37 -28 37q-32 0 -29 -39zM184 600l250 887l64 2l-252 -885zM203 -336h78v-86h-78v86zM203 1694v88h78v-88h-78zM301 -227h78v-88h-78v88zM301 1802v86h78 v-86h-78zM391 821q0 73 3 116t10 73.5t23 43.5t36.5 18t56.5 5q125 0 125 -205v-120q-3 -138 -129 -138q-125 0 -125 207zM395 -336h78v-86h-78v86zM395 1694v88h78v-88h-78zM483 969l9 -244q0 -39 28 -39q29 0 29 39l-8 238q0 38 -31 38q-27 0 -27 -32zM496 -227h75v-88 h-75v88zM496 1802v86h75v-86h-75z" />
<glyph unicode="&#x26;" d="M0 -156h586v-26h-586v26zM0 -467h586v-29h-586v29zM0 1624v25h586v-25h-586zM0 1937v25h586v-25h-586zM8 -336h78v-86h-78v86zM8 1694v88h78v-88h-78zM12 668q0 168 107 266q-92 151 -92 321q0 283 274 283q92 0 142.5 -32t74 -109.5t23.5 -220.5q0 -137 -199 -287 q39 -97 119 -332l-10 328l184 6l22 -383q0 -131 -22 -195l63 2l9 -159q-72 -9 -113 -9q-30 0 -62 7l-22 16q-103 -53 -195 -53q-125 0 -202.5 91t-85.5 241zM106 -227h78v-88h-78v88zM106 1802v86h78v-86h-78zM203 -336h78v-86h-78v86zM203 1694v88h78v-88h-78zM219 553 q0 -262 121 -262q29 0 59 12q-129 254 -176 410v-84q0 -20 -2 -45t-2 -31zM231 1313q0 -156 35 -269q88 70 88 142q0 215 -63 215q-60 0 -60 -88zM301 -227h78v-88h-78v88zM301 1802v86h78v-86h-78zM395 -336h78v-86h-78v86zM395 1694v88h78v-88h-78zM496 -227h75v-88h-75 v88zM496 1802v86h75v-86h-75z" />
<glyph unicode="'" horiz-adv-x="389" d="M0 -156h391v-26h-391v26zM0 -467h391v-29h-391v29zM0 1624v25h391v-25h-391zM0 1937v25h391v-25h-391zM8 -336h78v-86h-78v86zM8 1694v88h78v-88h-78zM72 1001l121 515l151 -35l-119 -514zM106 -227h78v-88h-78v88zM106 1802v86h78v-86h-78zM203 -336h78v-86h-78v86z M203 1694v88h78v-88h-78zM301 -227h78v-88h-78v88zM301 1802v86h78v-86h-78z" />
<glyph unicode="(" d="M0 -156h586v-26h-586v26zM0 -467h586v-29h-586v29zM0 1624v25h586v-25h-586zM0 1937v25h586v-25h-586zM8 -336h78v-86h-78v86zM8 1694v88h78v-88h-78zM78 889q0 362 127 657l170 13q-123 -307 -123 -658q0 -495 235 -903l-174 -14q-235 387 -235 905zM106 -227h78v-88 h-78v88zM106 1802v86h78v-86h-78zM203 -336h78v-86h-78v86zM203 1694v88h78v-88h-78zM301 -227h78v-88h-78v88zM301 1802v86h78v-86h-78zM395 -336h78v-86h-78v86zM395 1694v88h78v-88h-78zM496 -227h75v-88h-75v88zM496 1802v86h75v-86h-75z" />
<glyph unicode=")" d="M0 -156h586v-26h-586v26zM0 -467h586v-29h-586v29zM0 1624v25h586v-25h-586zM0 1937v25h586v-25h-586zM8 -336h78v-86h-78v86zM8 1694v88h78v-88h-78zM78 -39q301 451 301 1012q0 275 -84 538l172 -24q84 -244 84 -526q0 -597 -305 -1022zM106 -227h78v-88h-78v88z M106 1802v86h78v-86h-78zM203 -336h78v-86h-78v86zM203 1694v88h78v-88h-78zM301 -227h78v-88h-78v88zM301 1802v86h78v-86h-78zM395 -336h78v-86h-78v86zM395 1694v88h78v-88h-78zM496 -227h75v-88h-75v88zM496 1802v86h75v-86h-75z" />
<glyph unicode="*" d="M0 -156h586v-26h-586v26zM0 -467h586v-29h-586v29zM0 1624v25h586v-25h-586zM0 1937v25h586v-25h-586zM8 -336h78v-86h-78v86zM8 1694v88h78v-88h-78zM96 979l43 106l127 -51l8 142l117 -9l-12 -141l133 33l29 -111l-138 -35l74 -116l-96 -62l-74 119l-88 -109l-90 70 l96 113zM106 -227h78v-88h-78v88zM106 1802v86h78v-86h-78zM203 -336h78v-86h-78v86zM203 1694v88h78v-88h-78zM301 -227h78v-88h-78v88zM301 1802v86h78v-86h-78zM395 -336h78v-86h-78v86zM395 1694v88h78v-88h-78zM496 -227h75v-88h-75v88zM496 1802v86h75v-86h-75z" />
<glyph unicode="+" d="M0 -156h586v-26h-586v26zM0 -467h586v-29h-586v29zM0 1624v25h586v-25h-586zM0 1937v25h586v-25h-586zM8 -336h78v-86h-78v86zM8 1694v88h78v-88h-78zM29 854l8 80l250 -23l24 260l82 -8l-22 -256l250 -24l-7 -80l-252 20l-20 -256l-84 8l23 256zM106 -227h78v-88h-78v88 zM106 1802v86h78v-86h-78zM203 -336h78v-86h-78v86zM203 1694v88h78v-88h-78zM301 -227h78v-88h-78v88zM301 1802v86h78v-86h-78zM395 -336h78v-86h-78v86zM395 1694v88h78v-88h-78zM496 -227h75v-88h-75v88zM496 1802v86h75v-86h-75z" />
<glyph unicode="," horiz-adv-x="389" d="M0 -156h391v-26h-391v26zM0 -467h391v-29h-391v29zM0 1624v25h391v-25h-391zM0 1937v25h391v-25h-391zM8 -336h78v-86h-78v86zM8 1694v88h78v-88h-78zM18 -55l181 428l190 -49l-258 -410zM106 -227h78v-88h-78v88zM106 1802v86h78v-86h-78zM203 -336h78v-86h-78v86z M203 1694v88h78v-88h-78zM301 -227h78v-88h-78v88zM301 1802v86h78v-86h-78z" />
<glyph unicode="-" horiz-adv-x="389" d="M0 -156h391v-26h-391v26zM0 -467h391v-29h-391v29zM0 1624v25h391v-25h-391zM0 1937v25h391v-25h-391zM8 -336h78v-86h-78v86zM8 1694v88h78v-88h-78zM86 610l4 148l246 -17l-10 -147zM106 -227h78v-88h-78v88zM106 1802v86h78v-86h-78zM203 -336h78v-86h-78v86z M203 1694v88h78v-88h-78zM301 -227h78v-88h-78v88zM301 1802v86h78v-86h-78z" />
<glyph unicode="." horiz-adv-x="389" d="M0 -156h391v-26h-391v26zM0 -467h391v-29h-391v29zM0 1624v25h391v-25h-391zM0 1937v25h391v-25h-391zM8 -336h78v-86h-78v86zM8 1694v88h78v-88h-78zM86 125l18 219l189 -18l-21 -220zM106 -227h78v-88h-78v88zM106 1802v86h78v-86h-78zM203 -336h78v-86h-78v86z M203 1694v88h78v-88h-78zM293 -227h86v-88h-78zM301 1802v86h78v-86h-78z" />
<glyph unicode="/" d="M-59 -43l647 1567l135 -13l-653 -1566zM0 -156h586v-26h-586v26zM0 -467h586v-29h-586v29zM0 1624v25h586v-25h-586zM0 1937v25h586v-25h-586zM8 -336h78v-86h-78v86zM8 1694v88h78v-88h-78zM106 -227h78v-88h-78v88zM106 1802v86h78v-86h-78zM203 -336h78v-86h-78v86z M203 1694v88h78v-88h-78zM301 -227h78v-88h-78v88zM301 1802v86h78v-86h-78zM395 -336h78v-86h-78v86zM395 1694v88h78v-88h-78zM496 -227h75v-88h-75v88zM496 1802v86h75v-86h-75z" />
<glyph unicode="0" d="M0 -156h586v-26h-586v26zM0 -467h586v-29h-586v29zM0 1624v25h586v-25h-586zM0 1937v25h586v-25h-586zM8 -336h78v-86h-78v86zM8 1694v88h78v-88h-78zM20 1329q0 116 78.5 190t196.5 74q107 0 178.5 -66t85.5 -175l115 -914q2 -16 2 -45q0 -111 -79 -187.5t-196 -76.5 q-108 0 -180 66.5t-86 175.5l-112 915q-3 21 -3 43zM106 -227h78v-88h-78v88zM106 1802v86h78v-86h-78zM203 -336h78v-86h-78v86zM203 1694v88h78v-88h-78zM227 1348l117 -959q9 -82 66 -82q31 0 44 19t13 59l-117 958q-9 78 -65 78q-31 0 -44.5 -17.5t-13.5 -55.5z M301 -227h78v-88h-78v88zM301 1802v86h78v-86h-78zM395 -336h78v-86h-78v86zM395 1694v88h78v-88h-78zM496 -227h75v-88h-75v88zM496 1802v86h75v-86h-75z" />
<glyph unicode="1" horiz-adv-x="389" d="M-12 1182l12 151h12q92 0 140 40t55 126l172 -12l-125 -1397l-207 21l90 1056zM0 -156h391v-26h-391v26zM0 -467h391v-29h-391v29zM0 1624v25h391v-25h-391zM0 1937v25h391v-25h-391zM8 -336h78v-86h-78v86zM8 1694v88h78v-88h-78zM106 -227h78v-88h-78v88zM106 1802v86 h78v-86h-78zM203 -336h78v-86h-78v86zM203 1694v88h78v-88h-78zM301 -227h78v-88h-78v88zM301 1802v86h78v-86h-78z" />
<glyph unicode="2" d="M-2 1348q0 119 82.5 185t224.5 66q185 0 223 -188q41 -197 41 -264q0 -71 -79.5 -356.5t-79.5 -356.5q0 -48 8 -84l299 58l31 -166l-531 -105q-33 109 -33 234q0 72 42.5 242.5t85 332t42.5 213.5q0 107 -27 185.5t-65 78.5q-59 0 -59 -90q0 -81 53 -258l-207 -39 q-51 259 -51 312zM0 -156h586v-26h-586v26zM0 -467h586v-29h-586v29zM0 1624v25h586v-25h-586zM0 1937v25h586v-25h-586zM8 -336h78v-86h-78v86zM8 1694v88h78v-88h-78zM106 -227h78v-88h-78v88zM106 1802v86h78v-86h-78zM203 -336h78v-86h-78v86zM203 1694v88h78v-88h-78z M301 -227h78v-88h-78v88zM301 1802v86h78v-86h-78zM395 -336h78v-86h-78v86zM395 1694v88h78v-88h-78zM496 -227h75v-88h-75v88zM496 1802v86h75v-86h-75z" />
<glyph unicode="3" d="M0 -156h586v-26h-586v26zM0 205q0 31 49 332l207 -31q-47 -296 -47 -301q0 -76 55 -76q54 0 66 80q45 266 45 309q0 75 -103 90l25 156q12 -2 35 -2q82 0 100 108l31 136q11 50 16 133q0 98 -59 98q-48 0 -60 -74l-45 -282l-206 30l41 271q15 102 88.5 166.5t175.5 64.5 q116 0 193 -74.5t77 -189.5q-21 -169 -41 -291q-29 -194 -192 -194q133 -44 133 -152q0 -22 -6 -59q-13 -116 -26 -188t-33 -137t-49 -99t-71 -53t-102 -19q-141 0 -219 65.5t-78 182.5zM0 -467h586v-29h-586v29zM0 1624v25h586v-25h-586zM0 1937v25h586v-25h-586zM8 -336 h78v-86h-78v86zM8 1694v88h78v-88h-78zM106 -227h78v-88h-78v88zM106 1802v86h78v-86h-78zM203 -336h78v-86h-78v86zM203 1694v88h78v-88h-78zM301 -227h78v-88h-78v88zM301 1802v86h78v-86h-78zM395 -336h78v-86h-78v86zM395 1694v88h78v-88h-78zM496 -227h75v-88h-75v88z M496 1802v86h75v-86h-75z" />
<glyph unicode="4" d="M-27 616l203 912l285 18l59 -878l88 8l13 -170l-89 -6l25 -346l-207 -17l-24 346l-342 -22zM0 -156h586v-26h-586v26zM0 -467h586v-29h-586v29zM0 1624v25h586v-25h-586zM0 1937v25h586v-25h-586zM8 -336h78v-86h-78v86zM8 1694v88h78v-88h-78zM106 -227h78v-88h-78v88z M106 1802v86h78v-86h-78zM154 643l168 12l-50 697zM203 -336h78v-86h-78v86zM203 1694v88h78v-88h-78zM301 -227h78v-88h-78v88zM301 1802v86h78v-86h-78zM395 -336h78v-86h-78v86zM395 1694v88h78v-88h-78zM496 -227h75v-88h-75v88zM496 1802v86h75v-86h-75z" />
<glyph unicode="5" d="M0 -156h586v-26h-586v26zM0 -467h586v-29h-586v29zM0 1624v25h586v-25h-586zM0 1937v25h586v-25h-586zM8 -336h78v-86h-78v86zM8 1694v88h78v-88h-78zM20 340q0 11 31 313l205 -20q-8 -80 -16.5 -158.5t-11.5 -108t-3 -32.5q0 -78 58 -78t67 80q41 401 41 405 q0 62 -45 62q-25 0 -61 -31l-199 21l68 741l532 -57l-18 -168l-324 32l-43 -421q68 59 143 59q160 0 160 -168q0 -31 -6 -86l-41 -401q-10 -110 -86 -179t-184 -69q-117 0 -192 74t-75 190zM106 -227h78v-88h-78v88zM106 1802v86h78v-86h-78zM203 -336h78v-86h-78v86z M203 1694v88h78v-88h-78zM301 -227h78v-88h-78v88zM301 1802v86h78v-86h-78zM395 -336h78v-86h-78v86zM395 1694v88h78v-88h-78zM496 -227h75v-88h-75v88zM496 1802v86h75v-86h-75z" />
<glyph unicode="6" d="M-61 1358q0 113 85 180.5t218 67.5q40 0 72.5 -11.5t56 -28t44.5 -51t34 -63t28.5 -84t24 -93t23.5 -109.5q5 -22 7 -33l-202 -48l-64 277q-18 74 -69 74q-54 0 -54 -72q0 -7 93 -416q68 109 178 109q136 0 176 -166l92 -395q3 -15 5 -43.5t5 -42.5q0 -111 -85 -180.5 t-216 -69.5q-185 0 -235 213l-207 899q-10 48 -10 86zM0 -156h586v-26h-586v26zM0 -467h586v-29h-586v29zM0 1624v25h586v-25h-586zM0 1937v25h586v-25h-586zM8 -336h78v-86h-78v86zM8 1694v88h78v-88h-78zM106 -227h78v-88h-78v88zM106 1802v86h78v-86h-78zM203 -336h78 v-86h-78v86zM203 1694v88h78v-88h-78zM276 784q0 -5 5 -30l79 -342q15 -72 68 -72t53 68q0 20 -2 32l-80 342q-15 72 -67 72q-56 0 -56 -70zM301 -227h78v-88h-78v88zM301 1802v86h78v-86h-78zM395 -336h78v-86h-78v86zM395 1694v88h78v-88h-78zM496 -227h75v-88h-75v88z M496 1802v86h75v-86h-75z" />
<glyph unicode="7" d="M0 -156h586v-26h-586v26zM0 -467h586v-29h-586v29zM0 1624v25h586v-25h-586zM0 1937v25h586v-25h-586zM8 -336h78v-86h-78v86zM8 1694v88h78v-88h-78zM20 1528l574 28l6 -174l-231 -1237l-224 -14l248 1243l-362 -16zM106 -227h78v-88h-78v88zM106 1802v86h78v-86h-78z M203 -336h78v-86h-78v86zM203 1694v88h78v-88h-78zM301 -227h78v-88h-78v88zM301 1802v86h78v-86h-78zM395 -336h78v-86h-78v86zM395 1694v88h78v-88h-78zM496 -227h75v-88h-75v88zM496 1802v86h75v-86h-75z" />
<glyph unicode="8" d="M0 -156h586v-26h-586v26zM0 -467h586v-29h-586v29zM0 1624v25h586v-25h-586zM0 1937v25h586v-25h-586zM8 -336h78v-86h-78v86zM8 1694v88h78v-88h-78zM29 324q0 192 18 294t59 150.5t121 67.5q-141 46 -141 211q-1 3 25 235q24 244 254 244q284 0 284 -254 q0 -165 -20 -258t-63.5 -138t-123.5 -61q156 -41 156 -231q-11 -87 -29 -271q-24 -243 -256 -243q-284 0 -284 254zM106 -227h78v-88h-78v88zM106 1802v86h78v-86h-78zM203 -336h78v-86h-78v86zM203 1694v88h78v-88h-78zM238 322q0 -41 13 -60.5t44 -19.5q59 0 65 82l29 329 q0 82 -59 82q-58 0 -64 -86zM297 997q0 -40 13 -58.5t44 -18.5q60 0 66 81l22 281q0 78 -57 78t-63 -80zM301 -227h78v-88h-78v88zM301 1802v86h78v-86h-78zM395 -336h78v-86h-78v86zM395 1694v88h78v-88h-78zM496 -227h75v-88h-75v88zM496 1802v86h75v-86h-75z" />
<glyph unicode="9" d="M0 -156h586v-26h-586v26zM0 -467h586v-29h-586v29zM0 1624v25h586v-25h-586zM0 1937v25h586v-25h-586zM8 -336h78v-86h-78v86zM8 1694v88h78v-88h-78zM20 1331q0 254 291 254q226 0 250 -242l96 -915q2 -12 2 -37q0 -116 -78 -191t-196 -75q-110 0 -181 66.5t-83 179.5 l-21 186l207 23l12 -158q15 -117 70 -117q64 0 64 70q0 24 -33 332q-71 -89 -168 -89q-73 0 -121.5 53.5t-54.5 133.5l-53 481q-3 24 -3 45zM106 -227h78v-88h-78v88zM106 1802v86h78v-86h-78zM203 -336h78v-86h-78v86zM203 1694v88h78v-88h-78zM231 1333l43 -434 q6 -80 66 -80q59 0 59 78l-47 434q-9 80 -65 80t-56 -78zM301 -227h78v-88h-78v88zM301 1802v86h78v-86h-78zM395 -336h78v-86h-78v86zM395 1694v88h78v-88h-78zM496 -227h75v-88h-75v88zM496 1802v86h75v-86h-75z" />
<glyph unicode=":" d="M0 -156h586v-26h-586v26zM0 -467h586v-29h-586v29zM0 1624v25h586v-25h-586zM0 1937v25h586v-25h-586zM8 -336h78v-86h-78v86zM8 1694v88h78v-88h-78zM82 115l53 215l180 -43l-49 -215zM106 -227h78v-88h-78v88zM106 1802v86h78v-86h-78zM203 -336h78v-86h-78v86z M203 1694v88h78v-88h-78zM285 979l49 215l182 -41l-49 -215zM301 -227h78v-88h-78v88zM301 1802v86h78v-86h-78zM395 -336h78v-86h-78v86zM395 1694v88h78v-88h-78zM496 -227h75v-88h-75v88zM496 1802v86h75v-86h-75z" />
<glyph unicode=";" d="M0 -156h586v-26h-586v26zM0 -467h586v-29h-586v29zM0 1624v25h586v-25h-586zM0 1937v25h586v-25h-586zM8 -336h78v-86h-78v86zM8 1694v88h78v-88h-78zM106 -227h78v-88h-78v88zM106 1802v86h78v-86h-78zM156 -119l51 463l194 6l-127 -469h-118zM164 1241l188 4l8 -219 l-190 -8zM203 -336h78v-86h-78v86zM203 1694v88h78v-88h-78zM301 -227h78v-88h-78v88zM301 1802v86h78v-86h-78zM395 -336h78v-86h-78v86zM395 1694v88h78v-88h-78zM496 -227h75v-88h-75v88zM496 1802v86h75v-86h-75z" />
<glyph unicode="&#x3c;" d="M0 -156h586v-26h-586v26zM0 -467h586v-29h-586v29zM0 1624v25h586v-25h-586zM0 1937v25h586v-25h-586zM8 -336h78v-86h-78v86zM8 1694v88h78v-88h-78zM61 850l549 248l4 -88l-436 -195l449 -166l2 -84l-563 209zM106 -227h78v-88h-78v88zM106 1802v86h78v-86h-78z M203 -336h78v-86h-78v86zM203 1694v88h78v-88h-78zM301 -227h78v-88h-78v88zM301 1802v86h78v-86h-78zM395 -336h78v-86h-78v86zM395 1694v88h78v-88h-78zM496 -227h75v-88h-75v88zM496 1802v86h75v-86h-75z" />
<glyph unicode="=" d="M0 -156h586v-26h-586v26zM0 -467h586v-29h-586v29zM0 1624v25h586v-25h-586zM0 1937v25h586v-25h-586zM8 -336h78v-86h-78v86zM8 1694v88h78v-88h-78zM18 995l541 105l31 -154l-543 -106zM90 610l545 105l31 -154l-545 -104zM106 -227h78v-88h-78v88zM106 1802v86h78v-86 h-78zM203 -336h78v-86h-78v86zM203 1694v88h78v-88h-78zM301 -227h78v-88h-78v88zM301 1802v86h78v-86h-78zM395 -336h78v-86h-78v86zM395 1694v88h78v-88h-78zM496 -227h75v-88h-75v88zM496 1802v86h75v-86h-75z" />
<glyph unicode="&#x3e;" d="M0 -156h586v-26h-586v26zM0 -467h586v-29h-586v29zM0 1624v25h586v-25h-586zM0 1937v25h586v-25h-586zM8 -336h78v-86h-78v86zM8 1694v88h78v-88h-78zM39 502l20 84l471 78l-391 274l21 84l493 -348l-18 -76zM106 -227h78v-88h-78v88zM106 1802v86h78v-86h-78zM203 -336 h78v-86h-78v86zM203 1694v88h78v-88h-78zM301 -227h78v-88h-78v88zM301 1802v86h78v-86h-78zM395 -336h78v-86h-78v86zM395 1694v88h78v-88h-78zM496 -227h75v-88h-75v88zM496 1802v86h75v-86h-75z" />
<glyph unicode="?" d="M0 -156h586v-26h-586v26zM0 -467h586v-29h-586v29zM0 1624v25h586v-25h-586zM0 1937v25h586v-25h-586zM8 -336h78v-86h-78v86zM8 1694v88h78v-88h-78zM88 1006l47 317q10 87 70.5 140t148.5 53q100 0 171 -62.5t71 -155.5q0 -24 -2 -36q-2 -14 -6 -39q-29 -192 -45 -238 q-15 -42 -67 -120q-2 -2 -6 -9q-12 -17 -19 -27q-30 -44 -50.5 -88t-33 -93.5t-18.5 -82t-14.5 -94t-12.5 -88.5l-185 29l39 272q7 52 56 143.5t97 175t52 113.5q7 53 15 106t11 74.5t3 24.5q0 57 -39 57q-38 0 -47 -59l-48 -340zM94 109l31 223l186 -27l-30 -223zM106 -227 h78v-88h-78v88zM106 1802v86h78v-86h-78zM203 -336h78v-86h-78v86zM203 1694v88h78v-88h-78zM301 -227h78v-88h-78v88zM301 1802v86h78v-86h-78zM395 -336h78v-86h-78v86zM395 1694v88h78v-88h-78zM496 -227h75v-88h-75v88zM496 1802v86h75v-86h-75z" />
<glyph unicode="@" d="M-29 1087q0 169 117 283.5t287 114.5q142 0 230.5 -83.5t88.5 -223.5q0 -101 -64 -184t-151 -83q-75 0 -78 70q-40 -82 -120 -82q-127 0 -127 158q0 84 54.5 156.5t125.5 72.5q60 0 90 -55l18 45l64 6q-45 -196 -45 -264q0 -45 41 -45q49 0 88 68.5t39 144.5 q0 105 -73 171t-183 66q-146 0 -241 -96.5t-95 -241.5q0 -136 78 -218.5t211 -82.5q156 0 270 99l29 -39q-123 -117 -299 -117q-159 0 -257 100t-98 260zM0 -156h586v-26h-586v26zM0 -467h586v-29h-586v29zM0 1624v25h586v-25h-586zM0 1937v25h586v-25h-586zM8 -336h78v-86 h-78v86zM8 1694v88h78v-88h-78zM106 -227h78v-88h-78v88zM106 1802v86h78v-86h-78zM203 -336h78v-86h-78v86zM203 1694v88h78v-88h-78zM225 1059q0 -103 66 -103q59 0 80.5 37t40.5 166q-15 74 -70 74q-49 0 -83 -54t-34 -120zM301 -227h78v-88h-78v88zM301 1802v86h78v-86 h-78zM395 -336h78v-86h-78v86zM395 1694v88h78v-88h-78zM496 -227h75v-88h-75v88zM496 1802v86h75v-86h-75z" />
<glyph unicode="A" d="M0 -156h586v-26h-586v26zM0 -467h586v-29h-586v29zM0 1624v25h586v-25h-586zM0 1937v25h586v-25h-586zM8 -336h78v-86h-78v86zM8 1694v88h78v-88h-78zM20 129l216 1395l315 -15l104 -1403l-213 9l-30 377l-129 6l-58 -377zM106 -227h78v-88h-78v88zM106 1802v86h78v-86 h-78zM203 -336h78v-86h-78v86zM203 1694v88h78v-88h-78zM301 -227h78v-88h-78v88zM301 1802v86h78v-86h-78zM307 678l96 -4l-24 631zM395 -336h78v-86h-78v86zM395 1694v88h78v-88h-78zM496 -227h75v-88h-75v88zM496 1802v86h75v-86h-75z" />
<glyph unicode="B" d="M-23 121l193 1386l244 -34q260 -37 260 -236q0 -105 -18.5 -191t-34.5 -118q-56 -108 -209 -117l-2 -8q180 -40 180 -213q0 -25 -43 -289q-38 -221 -256 -221q-59 0 -160 16zM0 -156h586v-26h-586v26zM0 -467h586v-29h-586v29zM0 1624v25h586v-25h-586zM0 1937v25h586 v-25h-586zM8 -336h78v-86h-78v86zM8 1694v88h78v-88h-78zM106 -227h78v-88h-78v88zM106 1802v86h78v-86h-78zM203 -336h78v-86h-78v86zM203 1694v88h78v-88h-78zM205 262q41 -6 59 -6q67 0 76 78q43 313 43 325q0 41 -19.5 55.5t-91.5 26.5zM295 909q40 -6 59 -6q66 0 78 82 q39 164 39 221q0 98 -117 113zM301 -227h78v-88h-78v88zM301 1802v86h78v-86h-78zM395 -336h78v-86h-78v86zM395 1694v88h78v-88h-78zM496 -227h75v-88h-75v88zM496 1802v86h75v-86h-75z" />
<glyph unicode="C" d="M0 -156h586v-26h-586v26zM0 -467h586v-29h-586v29zM0 1624v25h586v-25h-586zM0 1937v25h586v-25h-586zM8 324q0 24 2 36l96 920q24 238 250 238q291 0 291 -275q-10 -98 -33 -297l-206 23q30 301 30 307q0 78 -57 78q-29 0 -43 -19.5t-19 -60.5l-102 -959q0 -41 13 -60 t44 -19q57 0 66 83l31 314l209 -25l-33 -305q-12 -110 -84 -178t-180 -68q-118 0 -196.5 75.5t-78.5 191.5zM8 -336h78v-86h-78v86zM8 1694v88h78v-88h-78zM106 -227h78v-88h-78v88zM106 1802v86h78v-86h-78zM203 -336h78v-86h-78v86zM203 1694v88h78v-88h-78zM301 -227h78 v-88h-78v88zM301 1802v86h78v-86h-78zM395 -336h78v-86h-78v86zM395 1694v88h78v-88h-78zM496 -227h75v-88h-75v88zM496 1802v86h75v-86h-75z" />
<glyph unicode="D" d="M0 -156h586v-26h-586v26zM0 -467h586v-29h-586v29zM0 1624v25h586v-25h-586zM0 1937v25h586v-25h-586zM6 1526l295 33q244 0 268 -230l95 -885v-43q0 -114 -69.5 -172t-223.5 -75l-221 -19zM8 -336h78v-86h-78v86zM8 1694v88h78v-88h-78zM106 -227h78v-88h-78v88z M106 1802v86h78v-86h-78zM203 -336h78v-86h-78v86zM203 1694v88h78v-88h-78zM227 1389l113 -1063q73 11 93 25.5t20 58.5l-93 901q-9 80 -79 80q-29 0 -54 -2zM301 -227h78v-88h-78v88zM301 1802v86h78v-86h-78zM395 -336h78v-86h-78v86zM395 1694v88h78v-88h-78zM496 -227 h75v-88h-75v88zM496 1802v86h75v-86h-75z" />
<glyph unicode="E" d="M0 -156h586v-26h-586v26zM0 -467h586v-29h-586v29zM0 1624v25h586v-25h-586zM0 1937v25h586v-25h-586zM8 -336h78v-86h-78v86zM8 1694v88h78v-88h-78zM33 125l149 1391l457 -50l-21 -190l-249 27l-37 -351l246 -24l-21 -183l-246 27l-49 -479l250 -27l-20 -190zM106 -227 h78v-88h-78v88zM106 1802v86h78v-86h-78zM203 -336h78v-86h-78v86zM203 1694v88h78v-88h-78zM301 -227h78v-88h-78v88zM301 1802v86h78v-86h-78zM395 -336h78v-86h-78v86zM395 1694v88h78v-88h-78zM496 -227h75v-88h-75v88zM496 1802v86h75v-86h-75z" />
<glyph unicode="F" d="M0 -156h586v-26h-586v26zM0 -467h586v-29h-586v29zM0 1624v25h586v-25h-586zM0 1937v25h586v-25h-586zM8 -336h78v-86h-78v86zM8 1694v88h78v-88h-78zM29 80l98 1397l459 -35l-15 -189l-249 17l-27 -350l246 -19l-11 -184l-247 18l-47 -669zM106 -227h78v-88h-78v88z M106 1802v86h78v-86h-78zM203 -336h78v-86h-78v86zM203 1694v88h78v-88h-78zM301 -227h78v-88h-78v88zM301 1802v86h78v-86h-78zM395 -336h78v-86h-78v86zM395 1694v88h78v-88h-78zM496 -227h75v-88h-75v88zM496 1802v86h75v-86h-75z" />
<glyph unicode="G" d="M0 -156h586v-26h-586v26zM0 -467h586v-29h-586v29zM0 1624v25h586v-25h-586zM0 1937v25h586v-25h-586zM8 -336h78v-86h-78v86zM8 1694v88h78v-88h-78zM47 1303q0 119 75.5 195.5t196.5 76.5q115 0 190.5 -74t78.5 -190l8 -281l-207 -8l-10 297q-3 84 -64 84 q-33 0 -46 -21t-13 -67l31 -946q6 -86 63 -86q62 0 62 90l-11 305l-90 -2l-6 174l299 10l23 -710l-109 -5l-20 86q-68 -135 -193 -135q-94 0 -159 81.5t-68 195.5zM106 -227h78v-88h-78v88zM106 1802v86h78v-86h-78zM203 -336h78v-86h-78v86zM203 1694v88h78v-88h-78z M301 -227h78v-88h-78v88zM301 1802v86h78v-86h-78zM395 -336h78v-86h-78v86zM395 1694v88h78v-88h-78zM496 -227h75v-88h-75v88zM496 1802v86h75v-86h-75z" />
<glyph unicode="H" d="M-6 125l149 1391l203 -21l-53 -532l117 -13l57 531l207 -23l-146 -1390l-206 22l69 668l-119 14l-69 -672zM0 -156h586v-26h-586v26zM0 -467h586v-29h-586v29zM0 1624v25h586v-25h-586zM0 1937v25h586v-25h-586zM8 -336h78v-86h-78v86zM8 1694v88h78v-88h-78zM106 -227 h78v-88h-78v88zM106 1802v86h78v-86h-78zM203 -336h78v-86h-78v86zM203 1694v88h78v-88h-78zM301 -227h78v-88h-78v88zM301 1802v86h78v-86h-78zM395 -336h78v-86h-78v86zM395 1694v88h78v-88h-78zM496 -227h75v-88h-75v88zM496 1802v86h75v-86h-75z" />
<glyph unicode="I" horiz-adv-x="389" d="M0 -156h391v-26h-391v26zM0 -467h391v-29h-391v29zM0 1624v25h391v-25h-391zM0 1937v25h391v-25h-391zM8 -336h78v-86h-78v86zM8 1694v88h78v-88h-78zM68 1528l208 6l25 -1399l-215 -6zM106 -227h78v-88h-78v88zM106 1802v86h78v-86h-78zM203 -336h78v-86h-78v86z M203 1694v88h78v-88h-78zM301 -227h78v-88h-78v88zM301 1802v86h78v-86h-78z" />
<glyph unicode="J" d="M0 -156h586v-26h-586v26zM0 -467h586v-29h-586v29zM0 1624v25h586v-25h-586zM0 1937v25h586v-25h-586zM8 -336h78v-86h-78v86zM8 1694v88h78v-88h-78zM33 674l209 18l28 -313q6 -84 62 -84q31 0 44 19.5t13 60.5l-102 1179l209 19l100 -1159q2 -12 2 -35 q0 -258 -287 -258q-53 0 -94 13.5t-69 38.5t-48 61.5t-31.5 80t-18 97t-10 110.5t-6.5 122q-1 20 -1 30zM106 -227h78v-88h-78v88zM106 1802v86h78v-86h-78zM203 -336h78v-86h-78v86zM203 1694v88h78v-88h-78zM301 -227h78v-88h-78v88zM301 1802v86h78v-86h-78zM395 -336h78 v-86h-78v86zM395 1694v88h78v-88h-78zM496 -227h75v-88h-75v88zM496 1802v86h75v-86h-75z" />
<glyph unicode="K" d="M0 -156h586v-26h-586v26zM0 -467h586v-29h-586v29zM0 1624v25h586v-25h-586zM0 1937v25h586v-25h-586zM8 -336h78v-86h-78v86zM8 1694v88h78v-88h-78zM33 125l123 1393l206 -19l-55 -616l225 604l201 -19l-225 -622l102 -770l-217 18l-90 715l-61 -703zM106 -227h78v-88 h-78v88zM106 1802v86h78v-86h-78zM203 -336h78v-86h-78v86zM203 1694v88h78v-88h-78zM301 -227h78v-88h-78v88zM301 1802v86h78v-86h-78zM395 -336h78v-86h-78v86zM395 1694v88h78v-88h-78zM496 -227h75v-88h-75v88zM496 1802v86h75v-86h-75z" />
<glyph unicode="L" d="M0 -156h586v-26h-586v26zM0 -467h586v-29h-586v29zM0 1624v25h586v-25h-586zM0 1937v25h586v-25h-586zM8 -336h78v-86h-78v86zM8 1694v88h78v-88h-78zM43 1530l209 6l41 -1204l254 8l8 -193l-461 -16zM106 -227h78v-88h-78v88zM106 1802v86h78v-86h-78zM203 -336h78v-86 h-78v86zM203 1694v88h78v-88h-78zM301 -227h78v-88h-78v88zM301 1802v86h78v-86h-78zM395 -336h78v-86h-78v86zM395 1694v88h78v-88h-78zM496 -227h75v-88h-75v88zM496 1802v86h75v-86h-75z" />
<glyph unicode="M" horiz-adv-x="776" d="M-39 33l49 1397l314 -11l55 -1030l129 1024l303 -10l-47 -1397l-193 4l43 1168l-157 -1162l-201 7l-74 1171l-43 -1167zM0 -156h780v-26h-780v26zM0 -467h780v-29h-780v29zM0 1624v25h780v-25h-780zM0 1937v25h780v-25h-780zM8 -336h78v-86h-78v86zM8 1694v88h78v-88h-78 zM106 -227h78v-88h-78v88zM106 1802v86h78v-86h-78zM203 -336h78v-86h-78v86zM203 1694v88h78v-88h-78zM301 -227h78v-88h-78v88zM301 1802v86h78v-86h-78zM395 -336h78v-86h-78v86zM395 1694v88h78v-88h-78zM496 -227h75v-88h-75v88zM496 1802v86h75v-86h-75zM590 -336h78 v-86h-78v86zM590 1694v88h78v-88h-78zM688 -227h78v-88h-78v88zM688 1802v86h78v-86h-78z" />
<glyph unicode="N" d="M0 -156h586v-26h-586v26zM0 -467h586v-29h-586v29zM0 1624v25h586v-25h-586zM0 1937v25h586v-25h-586zM8 -336h78v-86h-78v86zM8 1694v88h78v-88h-78zM18 125v1393h318l147 -1225v1223l150 -5v-1392h-309l-158 1233v-1231zM106 -227h78v-88h-78v88zM106 1802v86h78v-86 h-78zM203 -336h78v-86h-78v86zM203 1694v88h78v-88h-78zM301 -227h78v-88h-78v88zM301 1802v86h78v-86h-78zM395 -336h78v-86h-78v86zM395 1694v88h78v-88h-78zM496 -227h75v-88h-75v88zM496 1802v86h75v-86h-75z" />
<glyph unicode="O" d="M0 -156h586v-26h-586v26zM0 -467h586v-29h-586v29zM0 1624v25h586v-25h-586zM0 1937v25h586v-25h-586zM8 -336h78v-86h-78v86zM8 1694v88h78v-88h-78zM29 332q0 20 2 30l80 920q8 110 82 179t186 69q117 0 193.5 -74.5t76.5 -191.5l-80 -951q-9 -110 -84 -181t-184 -71 q-117 0 -194.5 77t-77.5 194zM106 -227h78v-88h-78v88zM106 1802v86h78v-86h-78zM203 -336h78v-86h-78v86zM203 1694v88h78v-88h-78zM238 322q0 -41 13 -60.5t44 -19.5q59 0 65 82l82 958q0 78 -57 78t-63 -80zM301 -227h78v-88h-78v88zM301 1802v86h78v-86h-78zM395 -336 h78v-86h-78v86zM395 1694v88h78v-88h-78zM496 -227h75v-88h-75v88zM496 1802v86h75v-86h-75z" />
<glyph unicode="P" d="M0 -156h586v-26h-586v26zM0 -467h586v-29h-586v29zM0 1624v25h586v-25h-586zM0 1937v25h586v-25h-586zM8 -336h78v-86h-78v86zM8 1694v88h78v-88h-78zM16 127l99 1393q102 -3 169 -7.5t131 -15t101 -28t66.5 -45.5t41 -67.5t11.5 -94.5l-6 -328q-12 -151 -84 -216 t-221 -65q-39 0 -62 2l-39 -544zM106 -227h78v-88h-78v88zM106 1802v86h78v-86h-78zM203 -336h78v-86h-78v86zM203 1694v88h78v-88h-78zM272 821q20 -2 43 -2q80 0 86 84q6 101 12 191t8.5 128t2.5 40q0 45 -21.5 62t-95.5 24zM301 -227h78v-88h-78v88zM301 1802v86h78v-86 h-78zM395 -336h78v-86h-78v86zM395 1694v88h78v-88h-78zM496 -227h75v-88h-75v88zM496 1802v86h75v-86h-75z" />
<glyph unicode="Q" d="M-47 322q0 15 4 51l94 917q27 240 252 240q291 0 291 -254q0 -15 -4 -43l-94 -918q-21 -180 -131 -227l116 -12l-18 -166q-42 5 -69 8.5t-51 10.5t-37.5 10.5t-24.5 15.5t-15 18t-7 26t-3 31.5v41.5q-303 18 -303 250zM0 -156h586v-26h-586v26zM0 -467h586v-29h-586v29z M0 1624v25h586v-25h-586zM0 1937v25h586v-25h-586zM8 -336h78v-86h-78v86zM8 1694v88h78v-88h-78zM106 -227h78v-88h-78v88zM106 1802v86h78v-86h-78zM164 311q0 -63 55 -63q57 0 66 82l100 956q0 40 -13 59t-46 19q-55 0 -64 -80zM203 -336h78v-86h-78v86zM203 1694v88h78 v-88h-78zM301 -227h78v-88h-78v88zM301 1802v86h78v-86h-78zM395 -336h78v-86h-78v86zM395 1694v88h78v-88h-78zM496 -227h75v-88h-75v88zM496 1802v86h75v-86h-75z" />
<glyph unicode="R" d="M-6 1481q273 18 297 18q239 0 260 -235q1 -12 6.5 -54.5t8.5 -74.5t3 -62q0 -104 -47.5 -157t-148.5 -74h22q152 0 193 -133q4 -16 14 -147t27 -264t39 -171l-219 -16q-51 105 -54 297q-3 240 -19.5 293t-94.5 53q-19 0 -27 -2l43 -652l-207 -14zM0 -156h586v-26h-586v26 zM0 -467h586v-29h-586v29zM0 1624v25h586v-25h-586zM0 1937v25h586v-25h-586zM8 -336h78v-86h-78v86zM8 1694v88h78v-88h-78zM106 -227h78v-88h-78v88zM106 1802v86h78v-86h-78zM203 -336h78v-86h-78v86zM203 1694v88h78v-88h-78zM213 1335l29 -411q72 3 99.5 22t27.5 64 q0 78 -15 196q-9 78 -31.5 103.5t-89.5 25.5h-20zM301 -227h78v-88h-78v88zM301 1802v86h78v-86h-78zM395 -336h78v-86h-78v86zM395 1694v88h78v-88h-78zM496 -227h75v-88h-75v88zM496 1802v86h75v-86h-75z" />
<glyph unicode="S" d="M0 -156h586v-26h-586v26zM0 -467h586v-29h-586v29zM0 1624v25h586v-25h-586zM0 1937v25h586v-25h-586zM8 -336h78v-86h-78v86zM8 1694v88h78v-88h-78zM45 1239q0 171 60.5 249.5t218.5 78.5q57 0 100 -15t71.5 -35t48 -64t29.5 -77.5t15 -101.5t5.5 -110t0.5 -127v-7 l-209 -8q0 15 3 78t3 74q0 225 -80 225q-59 0 -59 -90l4 -95q6 -129 180 -325q171 -192 174 -320q6 -169 6 -198q0 -262 -276 -262q-132 0 -196 74.5t-74 246.5v244l206 8l11 -313q3 -84 63 -84q64 0 64 106l-11 125q-1 17 -6 35t-15.5 39.5t-21 40t-29.5 44t-32 43t-37 46 t-38 44.5t-40.5 46.5t-38.5 44.5q-100 133 -100 340zM106 -227h78v-88h-78v88zM106 1802v86h78v-86h-78zM203 -336h78v-86h-78v86zM203 1694v88h78v-88h-78zM301 -227h78v-88h-78v88zM301 1802v86h78v-86h-78zM395 -336h78v-86h-78v86zM395 1694v88h78v-88h-78zM496 -227h75 v-88h-75v88zM496 1802v86h75v-86h-75z" />
<glyph unicode="T" d="M0 -156h586v-26h-586v26zM0 -467h586v-29h-586v29zM0 1624v25h586v-25h-586zM0 1937v25h586v-25h-586zM8 -336h78v-86h-78v86zM8 1694v88h78v-88h-78zM18 1358l5 180l571 -20l-8 -183l-178 8l-46 -1212h-206l41 1219zM106 -227h78v-88h-78v88zM106 1802v86h78v-86h-78z M203 -336h78v-86h-78v86zM203 1694v88h78v-88h-78zM301 -227h78v-88h-78v88zM301 1802v86h78v-86h-78zM395 -336h78v-86h-78v86zM395 1694v88h78v-88h-78zM496 -227h75v-88h-75v88zM496 1802v86h75v-86h-75z" />
<glyph unicode="U" d="M0 -156h586v-26h-586v26zM0 -467h586v-29h-586v29zM0 1624v25h586v-25h-586zM0 1937v25h586v-25h-586zM6 246q0 29 2 45l142 1151l206 -25l-141 -1181q0 -76 55 -76q57 0 66 82l143 1159l207 -27l-141 -1151q-14 -110 -85 -175.5t-179 -65.5q-118 0 -196.5 74.5 t-78.5 189.5zM8 -336h78v-86h-78v86zM8 1694v88h78v-88h-78zM106 -227h78v-88h-78v88zM106 1802v86h78v-86h-78zM203 -336h78v-86h-78v86zM203 1694v88h78v-88h-78zM301 -227h78v-88h-78v88zM301 1802v86h78v-86h-78zM395 -336h78v-86h-78v86zM395 1694v88h78v-88h-78z M496 -227h75v-88h-75v88zM496 1802v86h75v-86h-75z" />
<glyph unicode="V" d="M-8 1452h211l108 -1139l111 1139h203l-168 -1397h-301zM0 -156h586v-26h-586v26zM0 -467h586v-29h-586v29zM0 1624v25h586v-25h-586zM0 1937v25h586v-25h-586zM8 -336h78v-86h-78v86zM8 1694v88h78v-88h-78zM106 -227h78v-88h-78v88zM106 1802v86h78v-86h-78zM203 -336 h78v-86h-78v86zM203 1694v88h78v-88h-78zM301 -227h78v-88h-78v88zM301 1802v86h78v-86h-78zM395 -336h78v-86h-78v86zM395 1694v88h78v-88h-78zM496 -227h75v-88h-75v88zM496 1802v86h75v-86h-75z" />
<glyph unicode="W" horiz-adv-x="776" d="M-96 1516l207 10l145 -1026v1034l227 12l111 -1028l39 1036l162 7l-62 -1403l-227 -13l-125 1072h-10l-27 -1080l-248 -12zM0 -156h780v-26h-780v26zM0 -467h780v-29h-780v29zM0 1624v25h780v-25h-780zM0 1937v25h780v-25h-780zM8 -336h78v-86h-78v86zM8 1694v88h78v-88 h-78zM106 -227h78v-88h-78v88zM106 1802v86h78v-86h-78zM203 -336h78v-86h-78v86zM203 1694v88h78v-88h-78zM301 -227h78v-88h-78v88zM301 1802v86h78v-86h-78zM395 -336h78v-86h-78v86zM395 1694v88h78v-88h-78zM496 -227h75v-88h-75v88zM496 1802v86h75v-86h-75zM590 -336 h78v-86h-78v86zM590 1694v88h78v-88h-78zM688 -227h78v-88h-78v88zM688 1802v86h78v-86h-78z" />
<glyph unicode="X" d="M-59 1520l219 24l159 -536l52 557l194 20l-102 -643l252 -747l-217 -25l-166 586l-60 -609l-200 -20l110 717zM0 -156h586v-26h-586v26zM0 -467h586v-29h-586v29zM0 1624v25h586v-25h-586zM0 1937v25h586v-25h-586zM8 -336h78v-86h-78v86zM8 1694v88h78v-88h-78z M106 -227h78v-88h-78v88zM106 1802v86h78v-86h-78zM203 -336h78v-86h-78v86zM203 1694v88h78v-88h-78zM301 -227h78v-88h-78v88zM301 1802v86h78v-86h-78zM395 -336h78v-86h-78v86zM395 1694v88h78v-88h-78zM496 -227h75v-88h-75v88zM496 1802v86h75v-86h-75z" />
<glyph unicode="Y" d="M0 -156h586v-26h-586v26zM0 -467h586v-29h-586v29zM0 1624v25h586v-25h-586zM0 1937v25h586v-25h-586zM8 -336h78v-86h-78v86zM8 1694v88h78v-88h-78zM33 1526l205 -19l63 -616l168 596l195 -17l-289 -852l-45 -522l-213 19l43 557zM106 -227h78v-88h-78v88zM106 1802v86 h78v-86h-78zM203 -336h78v-86h-78v86zM203 1694v88h78v-88h-78zM301 -227h78v-88h-78v88zM301 1802v86h78v-86h-78zM395 -336h78v-86h-78v86zM395 1694v88h78v-88h-78zM496 -227h75v-88h-75v88zM496 1802v86h75v-86h-75z" />
<glyph unicode="Z" d="M0 -156h586v-26h-586v26zM0 -467h586v-29h-586v29zM0 1624v25h586v-25h-586zM0 1937v25h586v-25h-586zM8 -336h78v-86h-78v86zM8 1694v88h78v-88h-78zM10 94l17 162l354 1024l-238 25l17 180l461 -47l-17 -166l-350 -1024l242 -23l-19 -182zM106 -227h78v-88h-78v88z M106 1802v86h78v-86h-78zM203 -336h78v-86h-78v86zM203 1694v88h78v-88h-78zM301 -227h78v-88h-78v88zM301 1802v86h78v-86h-78zM395 -336h78v-86h-78v86zM395 1694v88h78v-88h-78zM496 -227h75v-88h-75v88zM496 1802v86h75v-86h-75z" />
<glyph unicode="[" d="M0 -156h586v-26h-586v26zM0 -467h586v-29h-586v29zM0 1624v25h586v-25h-586zM0 1937v25h586v-25h-586zM8 -336h78v-86h-78v86zM8 1694v88h78v-88h-78zM61 1534l340 22l11 -147l-160 -10l88 -1274l162 12l8 -143l-340 -23zM106 -227h78v-88h-78v88zM106 1802v86h78v-86 h-78zM203 -336h78v-86h-78v86zM203 1694v88h78v-88h-78zM301 -227h78v-88h-78v88zM301 1802v86h78v-86h-78zM395 -336h78v-86h-78v86zM395 1694v88h78v-88h-78zM496 -227h75v-88h-75v88zM496 1802v86h75v-86h-75z" />
<glyph unicode="\" d="M-98 1516l135 4l596 -1588l-135 -4zM0 -156h586v-26h-586v26zM0 -467h586v-29h-586v29zM0 1624v25h586v-25h-586zM0 1937v25h586v-25h-586zM8 -336h78v-86h-78v86zM8 1694v88h78v-88h-78zM106 -227h78v-88h-78v88zM106 1802v86h78v-86h-78zM203 -336h78v-86h-78v86z M203 1694v88h78v-88h-78zM301 -227h78v-88h-78v88zM301 1802v86h78v-86h-78zM395 -336h78v-86h-78v86zM395 1694v88h78v-88h-78zM496 -227h75v-88h-75v88zM496 1802v86h75v-86h-75z" />
<glyph unicode="]" d="M-20 -39l36 137l154 -41l332 1233l-156 41l39 142l330 -87l-404 -1513zM0 -156h586v-26h-586v26zM0 -467h586v-29h-586v29zM0 1624v25h586v-25h-586zM0 1937v25h586v-25h-586zM8 -336h78v-86h-78v86zM8 1694v88h78v-88h-78zM106 -227h78v-88h-78v88zM106 1802v86h78v-86 h-78zM203 -336h78v-86h-78v86zM203 1694v88h78v-88h-78zM301 -227h78v-88h-78v88zM301 1802v86h78v-86h-78zM395 -336h78v-86h-78v86zM395 1694v88h78v-88h-78zM496 -227h75v-88h-75v88zM496 1802v86h75v-86h-75z" />
<glyph unicode="^" d="M0 -156h586v-26h-586v26zM0 -467h586v-29h-586v29zM0 1624v25h586v-25h-586zM0 1937v25h586v-25h-586zM8 -336h78v-86h-78v86zM8 1694v88h78v-88h-78zM55 989l189 555l106 10l297 -503l-100 -11l-234 353l-157 -394zM106 -227h78v-88h-78v88zM106 1802v86h78v-86h-78z M203 -336h78v-86h-78v86zM203 1694v88h78v-88h-78zM301 -227h78v-88h-78v88zM301 1802v86h78v-86h-78zM395 -336h78v-86h-78v86zM395 1694v88h78v-88h-78zM496 -227h75v-88h-75v88zM496 1802v86h75v-86h-75z" />
<glyph unicode="_" horiz-adv-x="620" d="M0 -219h629v-96h-629v96z" />
<glyph unicode="`" horiz-adv-x="403" d="M35 1421h176l143 -250h-98z" />
<glyph unicode="a" d="M0 -156h586v-26h-586v26zM0 -467h586v-29h-586v29zM0 1624v25h586v-25h-586zM0 1937v25h586v-25h-586zM8 -336h78v-86h-78v86zM8 1694v88h78v-88h-78zM76 326q0 155 20 260t78 157l131 86q78 49 78 185q0 62 -9 85t-38 23q-26 0 -38.5 -40.5t-12.5 -96.5q0 -22 1 -64.5 t1 -62.5v-20l-183 8q0 124 5 203q6 97 69.5 157t161.5 60q99 0 163 -62t64 -160q0 -68 -17.5 -366.5t-17.5 -364.5q0 -113 9 -202l-185 8q-4 32 -4 57q0 4 1 14t1 15h-4q-52 -94 -143 -94q-131 0 -131 215zM106 -227h78v-88h-78v88zM106 1802v86h78v-86h-78zM203 -336h78 v-86h-78v86zM203 1694v88h78v-88h-78zM264 373q0 -30 1 -44t5 -32t14 -25.5t27 -7.5q40 0 43 60l15 374q-69 -42 -87 -109t-18 -216zM301 -227h78v-88h-78v88zM301 1802v86h78v-86h-78zM395 -336h78v-86h-78v86zM395 1694v88h78v-88h-78zM496 -227h75v-88h-75v88zM496 1802 v86h75v-86h-75z" />
<glyph unicode="b" d="M0 -156h586v-26h-586v26zM0 -467h586v-29h-586v29zM0 1624v25h586v-25h-586zM0 1937v25h586v-25h-586zM8 -336h78v-86h-78v86zM8 1694v88h78v-88h-78zM41 125l195 1384l186 -24l-49 -359h2q50 80 127 80q125 0 125 -170q0 -37 -2 -57l-105 -737q-24 -183 -147 -183 q-101 0 -135 123l-2 2l-13 -86zM106 -227h78v-88h-78v88zM106 1802v86h78v-86h-78zM203 -336h78v-86h-78v86zM203 1694v88h78v-88h-78zM256 295q0 -59 37 -59q7 0 15.5 3t18.5 16.5t13 35.5l100 717q0 28 -8.5 40.5t-30.5 12.5q-38 0 -47 -55q-98 -575 -98 -711zM301 -227 h78v-88h-78v88zM301 1802v86h78v-86h-78zM395 -336h78v-86h-78v86zM395 1694v88h78v-88h-78zM496 -227h75v-88h-75v88zM496 1802v86h75v-86h-75z" />
<glyph unicode="c" d="M0 -156h586v-26h-586v26zM0 -467h586v-29h-586v29zM0 1624v25h586v-25h-586zM0 1937v25h586v-25h-586zM8 -336h78v-86h-78v86zM8 1694v88h78v-88h-78zM51 1069q0 97 66.5 159t167.5 62q165 0 211 -137q18 -58 32 -279l-188 -12v72q0 121 -15 167t-46 46 q-26 0 -31.5 -14.5t-5.5 -57.5q0 -196 51 -749q3 -32 13.5 -47t33.5 -15q21 0 32 22.5t11 57.5q0 34 -23 250l187 12q18 -255 18 -262q0 -97 -67.5 -158t-167.5 -61q-95 0 -158.5 56t-67.5 149zM106 -227h78v-88h-78v88zM106 1802v86h78v-86h-78zM203 -336h78v-86h-78v86z M203 1694v88h78v-88h-78zM301 -227h78v-88h-78v88zM301 1802v86h78v-86h-78zM395 -336h78v-86h-78v86zM395 1694v88h78v-88h-78zM496 -227h75v-88h-75v88zM496 1802v86h75v-86h-75z" />
<glyph unicode="d" d="M0 -156h586v-26h-586v26zM0 -467h586v-29h-586v29zM0 1624v25h586v-25h-586zM0 1937v25h586v-25h-586zM8 -336h78v-86h-78v86zM8 1694v88h78v-88h-78zM23 227q0 11 4 43l77 740q21 194 148 194q91 0 133 -114l39 358l182 -18l-145 -1391l-180 18l6 86h-2 q-50 -92 -135 -92q-127 0 -127 176zM106 -227h78v-88h-78v88zM106 1802v86h78v-86h-78zM203 -336h78v-86h-78v86zM203 1694v88h78v-88h-78zM215 285q0 -52 10.5 -66t34.5 -14q34 0 41 57l74 719q0 29 -8.5 42t-32.5 13q-20 0 -29 -13.5t-14 -43.5q-76 -524 -76 -694z M301 -227h78v-88h-78v88zM301 1802v86h78v-86h-78zM395 -336h78v-86h-78v86zM395 1694v88h78v-88h-78zM496 -227h75v-88h-75v88zM496 1802v86h75v-86h-75z" />
<glyph unicode="e" d="M0 -156h586v-26h-586v26zM0 -467h586v-29h-586v29zM0 1624v25h586v-25h-586zM0 1937v25h586v-25h-586zM8 -336h78v-86h-78v86zM8 1694v88h78v-88h-78zM47 1061q0 97 65 159t164 62q100 0 164.5 -59.5t67.5 -155.5l12 -389l-272 -10l10 -349q0 -63 47 -63t47 127 q0 29 -8 112t-8 89l186 6q3 -73 5.5 -136.5t3.5 -90.5l1 -27q0 -97 -65.5 -158t-165.5 -61q-98 0 -161.5 58t-69.5 155q-4 136 -8 261t-6.5 206.5t-4.5 143.5t-3 91zM106 -227h78v-88h-78v88zM106 1802v86h78v-86h-78zM203 -336h78v-86h-78v86zM203 1694v88h78v-88h-78z M231 1051q0 -102 13 -248l86 2l-11 278q-3 56 -45 56q-27 0 -35 -23t-8 -65zM301 -227h78v-88h-78v88zM301 1802v86h78v-86h-78zM395 -336h78v-86h-78v86zM395 1694v88h78v-88h-78zM496 -227h75v-88h-75v88zM496 1802v86h75v-86h-75z" />
<glyph unicode="f" horiz-adv-x="389" d="M0 -156h391v-26h-391v26zM0 -467h391v-29h-391v29zM0 1624v25h391v-25h-391zM0 1937v25h391v-25h-391zM8 -336h78v-86h-78v86zM8 1694v88h78v-88h-78zM23 127l83 963l-51 4l15 151l51 -4q15 170 18 186q28 78 146 78q39 0 100 -6l-12 -156l-13 5q-30 0 -39 -19t-16 -104 l57 -4l-12 -152l-57 2l-84 -962zM106 -227h78v-88h-78v88zM106 1802v86h78v-86h-78zM203 -336h78v-86h-78v86zM203 1694v88h78v-88h-78zM301 -227h78v-88h-78v88zM301 1802v86h78v-86h-78z" />
<glyph unicode="g" d="M0 -156h586v-26h-586v26zM0 -467h586v-29h-586v29zM0 1624v25h586v-25h-586zM0 1937v25h586v-25h-586zM8 -336h78v-86h-78v86zM8 1694v88h78v-88h-78zM39 100q0 7 4 125l188 -12q-8 -107 -8 -117q0 -38 7.5 -55.5t31.5 -17.5q30 0 44.5 29.5t15.5 107.5l4 182h-4 q-47 -86 -129 -86q-134 0 -134 162q0 33 2 53l45 606q8 98 42.5 145.5t99.5 47.5q98 0 133 -115h4l6 86l180 -14l-79 -1149q-15 -203 -216 -203q-237 0 -237 225zM106 -227h78v-88h-78v88zM106 1802v86h78v-86h-78zM203 -336h78v-86h-78v86zM203 1694v88h78v-88h-78z M252 477q0 -30 10 -42.5t33 -12.5q38 0 41 55l39 570q0 31 -8.5 44t-32.5 13q-40 0 -43 -57zM301 -227h78v-88h-78v88zM301 1802v86h78v-86h-78zM395 -336h78v-86h-78v86zM395 1694v88h78v-88h-78zM496 -227h75v-88h-75v88zM496 1802v86h75v-86h-75z" />
<glyph unicode="h" d="M0 -156h586v-26h-586v26zM0 -467h586v-29h-586v29zM0 1624v25h586v-25h-586zM0 1937v25h586v-25h-586zM8 -336h78v-86h-78v86zM8 1694v88h78v-88h-78zM72 1528l186 8l16 -365q38 109 134 109q131 0 137 -190l33 -943l-185 -8l-33 916q-3 61 -45 61q-44 0 -41 -65l33 -914 l-188 -6zM106 -227h78v-88h-78v88zM106 1802v86h78v-86h-78zM203 -336h78v-86h-78v86zM203 1694v88h78v-88h-78zM301 -227h78v-88h-78v88zM301 1802v86h78v-86h-78zM395 -336h78v-86h-78v86zM395 1694v88h78v-88h-78zM496 -227h75v-88h-75v88zM496 1802v86h75v-86h-75z" />
<glyph unicode="i" horiz-adv-x="389" d="M0 -156h391v-26h-391v26zM0 -467h391v-29h-391v29zM0 1624v25h391v-25h-391zM0 1937v25h391v-25h-391zM8 -336h78v-86h-78v86zM8 1694v88h78v-88h-78zM51 1526l187 18l20 -196l-186 -19zM80 1245l186 21l117 -1112l-186 -19zM106 -227h78v-88h-78v88zM106 1802v86h78v-86 h-78zM203 -336h78v-86h-78v86zM203 1694v88h78v-88h-78zM301 -227h78v-88h-78v88zM301 1802v86h78v-86h-78z" />
<glyph unicode="j" horiz-adv-x="389" d="M0 -156h391v-26h-391v26zM0 -467h391v-29h-391v29zM0 1624v25h391v-25h-391zM0 1937v25h391v-25h-391zM8 -336h78v-86h-78v86zM8 1694v88h78v-88h-78zM78 31q43 1 62.5 17.5t19.5 49.5l-60 1149l187 13l63 -1211q0 -128 -76 -155q-24 -10 -188 -19zM86 1528l186 10 l11 -197l-187 -10zM106 -227h78v-88h-78v88zM106 1802v86h78v-86h-78zM203 -336h78v-86h-78v86zM203 1694v88h78v-88h-78zM301 -227h78v-88h-78v88zM301 1802v86h78v-86h-78z" />
<glyph unicode="k" d="M-18 86l145 1393l186 -21l-82 -786l158 495l189 -18l-166 -485l61 -631l-188 22l-58 598l-59 -585zM0 -156h586v-26h-586v26zM0 -467h586v-29h-586v29zM0 1624v25h586v-25h-586zM0 1937v25h586v-25h-586zM8 -336h78v-86h-78v86zM8 1694v88h78v-88h-78zM106 -227h78v-88 h-78v88zM106 1802v86h78v-86h-78zM203 -336h78v-86h-78v86zM203 1694v88h78v-88h-78zM301 -227h78v-88h-78v88zM301 1802v86h78v-86h-78zM395 -336h78v-86h-78v86zM395 1694v88h78v-88h-78zM496 -227h75v-88h-75v88zM496 1802v86h75v-86h-75z" />
<glyph unicode="l" horiz-adv-x="389" d="M0 -156h391v-26h-391v26zM0 -467h391v-29h-391v29zM0 1624v25h391v-25h-391zM0 1937v25h391v-25h-391zM8 -336h78v-86h-78v86zM8 1694v88h78v-88h-78zM23 127l122 1393l187 -19l-123 -1392zM106 -227h78v-88h-78v88zM106 1802v86h78v-86h-78zM203 -336h78v-86h-78v86z M203 1694v88h78v-88h-78zM301 -227h78v-88h-78v88zM301 1802v86h78v-86h-78z" />
<glyph unicode="m" horiz-adv-x="776" d="M-16 1247l176 17l8 -86h6q35 114 141 114q87 0 125 -90h2q27 117 136 117q122 0 137 -184l82 -938l-181 -19l-79 912q-6 63 -48 63q-21 0 -29.5 -14.5t-8.5 -44.5l79 -920l-180 -18l-80 911q-6 61 -47 61q-39 0 -39 -59l80 -919l-184 -19zM0 -156h780v-26h-780v26z M0 -467h780v-29h-780v29zM0 1624v25h780v-25h-780zM0 1937v25h780v-25h-780zM8 -336h78v-86h-78v86zM8 1694v88h78v-88h-78zM106 -227h78v-88h-78v88zM106 1802v86h78v-86h-78zM203 -336h78v-86h-78v86zM203 1694v88h78v-88h-78zM301 -227h78v-88h-78v88zM301 1802v86h78 v-86h-78zM395 -336h78v-86h-78v86zM395 1694v88h78v-88h-78zM496 -227h75v-88h-75v88zM496 1802v86h75v-86h-75zM590 -336h78v-86h-78v86zM590 1694v88h78v-88h-78zM688 -227h78v-88h-78v88zM688 1802v86h78v-86h-78z" />
<glyph unicode="n" d="M0 -156h586v-26h-586v26zM0 -467h586v-29h-586v29zM0 1624v25h586v-25h-586zM0 1937v25h586v-25h-586zM8 -336h78v-86h-78v86zM8 1694v88h78v-88h-78zM41 127l98 1114l183 -16l-7 -86h4q50 86 132 86q133 0 133 -146q0 -13 -4 -53l-82 -940l-185 14l80 922q0 30 -9 43.5 t-30 13.5q-41 0 -47 -59l-80 -911zM106 -227h78v-88h-78v88zM106 1802v86h78v-86h-78zM203 -336h78v-86h-78v86zM203 1694v88h78v-88h-78zM301 -227h78v-88h-78v88zM301 1802v86h78v-86h-78zM395 -336h78v-86h-78v86zM395 1694v88h78v-88h-78zM496 -315l2 88h73v-88h-75z M496 1802v86h75v-86h-75z" />
<glyph unicode="o" d="M0 -156h586v-26h-586v26zM0 -467h586v-29h-586v29zM0 1624v25h586v-25h-586zM0 1937v25h586v-25h-586zM8 -336h78v-86h-78v86zM8 1694v88h78v-88h-78zM47 1061q0 97 65 159t164 62q100 0 164.5 -59.5t67.5 -155.5q3 -99 6 -192.5t5 -164.5t4 -133.5t4 -105t3 -74t2 -46.5 v-15q0 -97 -65.5 -158t-165.5 -61q-98 0 -161.5 58t-69.5 155q-4 136 -8 261t-6.5 206.5t-4.5 143.5t-3 91zM106 -227h78v-88h-78v88zM106 1802v86h78v-86h-78zM203 -336h78v-86h-78v86zM203 1694v88h78v-88h-78zM233 1077l25 -764q0 -59 45 -59q44 0 41 61l-25 768 q-3 60 -43 60q-46 0 -43 -66zM301 -227h78v-88h-78v88zM301 1802v86h78v-86h-78zM395 -336h78v-86h-78v86zM395 1694v88h78v-88h-78zM496 -227h75v-88h-75v88zM496 1802v86h75v-86h-75z" />
<glyph unicode="p" d="M0 -156h586v-26h-586v26zM0 -467h586v-29h-586v29zM0 1624v25h586v-25h-586zM0 1937v25h586v-25h-586zM8 -336h78v-86h-78v86zM8 1694v88h78v-88h-78zM41 -68l96 1371l185 -13l-9 -86h6q50 96 134 96q54 0 90.5 -48t36.5 -122l-52 -786q-6 -99 -43.5 -150t-101.5 -51 q-89 0 -127 109h-4l-25 -332zM106 -227h78v-88h-78v88zM106 1802v86h78v-86h-78zM203 -336h78v-86h-78v86zM203 1694v88h78v-88h-78zM258 422q0 -70 11 -88.5t38 -18.5q34 0 37 56l51 716q0 58 -41 58q-21 0 -30.5 -13.5t-12.5 -44.5q-53 -503 -53 -665zM301 -227h78v-88 h-78v88zM301 1802v86h78v-86h-78zM395 -336h78v-86h-78v86zM395 1694v88h78v-88h-78zM496 -227h75v-88h-75v88zM496 1802v86h75v-86h-75z" />
<glyph unicode="q" d="M0 -156h586v-26h-586v26zM0 -467h586v-29h-586v29zM0 1624v25h586v-25h-586zM0 1937v25h586v-25h-586zM6 1122q0 82 35.5 131.5t93.5 49.5q79 0 135 -93h2l-8 84l180 17l121 -1368l-182 -15l-31 330h-6q-34 -111 -129 -111q-130 0 -145 199l-64 741q-2 12 -2 35zM8 -336 h78v-86h-78v86zM8 1694v88h78v-88h-78zM106 -227h78v-88h-78v88zM106 1802v86h78v-86h-78zM195 1096q0 -144 22 -400q23 -304 55 -366l33 -11l31 17q6 15 6 29l-61 729q-6 55 -45 55q-41 0 -41 -53zM203 -336h78v-86h-78v86zM203 1694v88h78v-88h-78zM301 -227h78v-88h-78 v88zM301 1802v86h78v-86h-78zM395 -336h78v-86h-78v86zM395 1694v88h78v-88h-78zM496 -227h75v-88h-75v88zM496 1802v86h75v-86h-75z" />
<glyph unicode="r" d="M0 -156h586v-26h-586v26zM0 -467h586v-29h-586v29zM0 1624v25h586v-25h-586zM0 1937v25h586v-25h-586zM8 -336h78v-86h-78v86zM8 1694v88h78v-88h-78zM104 41v1116h183l-2 -86h6q41 96 137 96q129 0 129 -176q0 -54 -8 -422l-184 6l8 375q0 66 -41 66q-45 0 -45 -66 l-15 -909h-168zM106 -227h78v-88h-78v88zM106 1802v86h78v-86h-78zM203 -336h78v-86h-78v86zM203 1694v88h78v-88h-78zM301 -227h78v-88h-78v88zM301 1802v86h78v-86h-78zM395 -336h78v-86h-78v86zM395 1694v88h78v-88h-78zM496 -227h75v-88h-75v88zM496 1802v86h75v-86h-75 z" />
<glyph unicode="s" d="M0 -156h586v-26h-586v26zM0 -467h586v-29h-586v29zM0 1624v25h586v-25h-586zM0 1937v25h586v-25h-586zM8 -336h78v-86h-78v86zM8 1694v88h78v-88h-78zM47 315q0 176 8 256l189 -8l-11 -100q-6 -61 -6 -101q0 -126 47 -126q24 0 37.5 25t12.5 73l-2 61q-3 120 -127 267 q-127 151 -127 258v61q0 131 57 207t176 76q99 0 165 -63t66 -161q0 -2 -6 -217l-190 8q16 131 16 177q0 114 -47 114q-25 0 -33 -14q-20 -34 -20 -96q0 -100 129 -267q131 -168 131 -274q0 -68 -4 -160q-4 -98 -68.5 -156.5t-163.5 -58.5t-164 61t-65 158zM106 -227h78v-88 h-78v88zM106 1802v86h78v-86h-78zM203 -336h78v-86h-78v86zM203 1694v88h78v-88h-78zM301 -227h78v-88h-78v88zM301 1802v86h78v-86h-78zM395 -336h78v-86h-78v86zM395 1694v88h78v-88h-78zM496 -227h75v-88h-75v88zM496 1802v86h75v-86h-75z" />
<glyph unicode="t" horiz-adv-x="389" d="M0 -156h391v-26h-391v26zM0 -467h391v-29h-391v29zM0 1624v25h391v-25h-391zM0 1937v25h391v-25h-391zM8 -336h78v-86h-78v86zM8 1694v88h78v-88h-78zM29 1245l51 2l-12 213l186 13l12 -211l64 4l10 -152l-64 -4l56 -770q1 -22 16 -30.5t47 -8.5l13 -151l-146 -13 q-103 3 -112 129l-60 832l-51 -4zM86 -227h98v-88h-78zM106 1802v86h78v-86h-78zM184 -336h97v-86h-78zM203 1694v88h78v-88h-78zM301 -227h78v-88h-78v88zM301 1802v86h78v-86h-78z" />
<glyph unicode="u" d="M0 -156h586v-26h-586v26zM0 -467h586v-29h-586v29zM0 1624v25h586v-25h-586zM0 1937v25h586v-25h-586zM8 -336h78v-86h-78v86zM8 1694v88h78v-88h-78zM57 242q0 9 4 59l99 936l182 -16l-96 -924q0 -55 39 -55q41 0 47 59l96 909l186 -18l-116 -1114l-185 18l11 86h-5 q-47 -84 -131 -84q-131 0 -131 144zM106 -227h78v-88h-78v88zM106 1802v86h78v-86h-78zM203 -336h78v-86h-78v86zM203 1694v88h78v-88h-78zM301 -227h78v-88h-78v88zM301 1802v86h78v-86h-78zM395 -336h78v-86h-78v86zM395 1694v88h78v-88h-78zM496 -227h75v-88h-75v88z M496 1802v86h75v-86h-75z" />
<glyph unicode="v" d="M0 -156h586v-26h-586v26zM0 -467h586v-29h-586v29zM0 1624v25h586v-25h-586zM0 1937v25h586v-25h-586zM8 -336h78v-86h-78v86zM8 1694v88h78v-88h-78zM39 1245l176 15l160 -910l20 922l174 10l-67 -1126l-240 -17zM106 -227h78v-88h-78v88zM106 1802v86h78v-86h-78z M203 -336h78v-86h-78v86zM203 1694v88h78v-88h-78zM301 -227h78v-88h-78v88zM301 1802v86h78v-86h-78zM395 -336h78v-86h-78v86zM395 1694v88h78v-88h-78zM496 -227h75v-88h-75v88zM496 1802v86h75v-86h-75z" />
<glyph unicode="w" horiz-adv-x="776" d="M-18 1163l186 -16v-905l137 897l215 -15v-909l127 901l182 -12l-213 -1110l-204 16l-21 881l-137 -871l-217 17zM0 -156h780v-26h-780v26zM0 -467h780v-29h-780v29zM0 1624v25h780v-25h-780zM0 1937v25h780v-25h-780zM8 -336h78v-86h-78v86zM8 1694v88h78v-88h-78z M106 -227h78v-88h-78v88zM106 1802v86h78v-86h-78zM203 -336h78v-86h-78v86zM203 1694v88h78v-88h-78zM301 -227h78v-88h-78v88zM301 1802v86h78v-86h-78zM395 -336h78v-86h-78v86zM395 1694v88h78v-88h-78zM496 -227h75v-88h-75v88zM496 1802v86h75v-86h-75zM590 -336h78 v-86h-78v86zM590 1694v88h78v-88h-78zM688 -227h78v-88h-78v88zM688 1802v86h78v-86h-78z" />
<glyph unicode="x" d="M-8 1245l186 17l88 -359l8 367l177 14l-43 -530l161 -580l-186 -18l-90 448l-37 -459l-176 -16l59 598zM0 -156h586v-26h-586v26zM0 -467h586v-29h-586v29zM0 1624v25h586v-25h-586zM0 1937v25h586v-25h-586zM8 -336h78v-86h-78v86zM8 1694v88h78v-88h-78zM106 -227h78 v-88h-78v88zM106 1802v86h78v-86h-78zM203 -336h78v-86h-78v86zM203 1694v88h78v-88h-78zM301 -227h78v-88h-78v88zM301 1802v86h78v-86h-78zM395 -336h78v-86h-78v86zM395 1694v88h78v-88h-78zM496 -227h75v-88h-75v88zM496 1802v86h75v-86h-75z" />
<glyph unicode="y" d="M0 -68l27 154q49 -14 73 -14q53 0 56 71l20 1151l193 -30l-62 -922l219 895l176 -27l-331 -1110q-33 -109 -73 -151.5t-105 -42.5q-33 0 -193 26zM0 -156h586v-26h-586v26zM0 -467h586v-29h-586v29zM0 1624v25h586v-25h-586zM0 1937v25h586v-25h-586zM8 -336h78v-86h-78 v86zM8 1694v88h78v-88h-78zM106 -227h78v-88h-78v88zM106 1802v86h78v-86h-78zM203 -336h78v-86h-78v86zM203 1694v88h78v-88h-78zM301 -227h78v-88h-78v88zM301 1802v86h78v-86h-78zM395 -336h78v-86h-78v86zM395 1694v88h78v-88h-78zM496 -227h75v-88h-75v88zM496 1802v86 h75v-86h-75z" />
<glyph unicode="z" d="M-23 1223l396 92l35 -150l-19 -833l215 49l33 -154l-410 -96l-32 150l20 847l-205 -45zM0 -156h586v-26h-586v26zM0 -467h586v-29h-586v29zM0 1624v25h586v-25h-586zM0 1937v25h586v-25h-586zM8 -336h78v-86h-78v86zM8 1694v88h78v-88h-78zM106 -227h78v-88h-78v88z M106 1802v86h78v-86h-78zM203 -336h78v-86h-78v86zM203 1694v88h78v-88h-78zM301 -227h78v-88h-78v88zM301 1802v86h78v-86h-78zM395 -336h78v-86h-78v86zM395 1694v88h78v-88h-78zM496 -227h75v-88h-75v88zM496 1802v86h75v-86h-75z" />
<glyph unicode="{" horiz-adv-x="389" d="M-4 743l10 119l47 -6q25 0 40 16t30 69.5t27 148t28 258.5q19 213 197 213l76 -9l-9 -98l-63 6q-28 0 -44.5 -6t-32.5 -27.5t-25.5 -66t-16.5 -117.5q-17 -177 -39.5 -273t-47.5 -128.5t-67 -46.5q48 -36 69.5 -80.5t21.5 -112.5q0 -66 -16.5 -204t-16.5 -210 q0 -78 19 -103t61 -28l63 -6l-10 -106l-70 6q-69 5 -114 56.5t-45 162.5q0 69 17 213t17 223q0 67 -14.5 98.5t-46.5 34.5zM0 -156h391v-26h-391v26zM0 -467h391v-29h-391v29zM0 1624v25h391v-25h-391zM0 1937v25h391v-25h-391zM8 -336h78v-86h-78v86zM8 1694v88h78v-88h-78 zM106 -227h78v-88h-78v88zM106 1802v86h78v-86h-78zM203 -336h78v-86h-78v86zM203 1694v88h78v-88h-78zM301 -227h78v-88h-78v88zM301 1802v86h78v-86h-78z" />
<glyph unicode="|" horiz-adv-x="389" d="M0 -156h391v-26h-391v26zM0 -467h391v-29h-391v29zM0 1624v25h391v-25h-391zM0 1937v25h391v-25h-391zM8 -336h78v-86h-78v86zM8 1694v88h78v-88h-78zM106 -227h78v-88h-78v88zM106 1802v86h78v-86h-78zM135 -96v1677h111v-1677h-111zM203 -336h78v-86h-78v86zM203 1694 v88h78v-88h-78zM301 -227h78v-88h-78v88zM301 1802v86h78v-86h-78z" />
<glyph unicode="}" horiz-adv-x="389" d="M-66 1552l76 9q178 0 197 -213q3 -36 7.5 -89t7 -85t7 -75.5t8.5 -70t10.5 -58t14 -49t18 -34.5t23.5 -24t29 -7l47 6l10 -119l-45 -4q-34 -3 -48.5 -34t-14.5 -99q0 -62 17 -213.5t17 -222.5q0 -111 -44.5 -162.5t-112.5 -56.5l-70 -6l-10 106l63 6q42 3 61 28t19 103 q0 49 -17.5 197.5t-17.5 216.5q0 67 22.5 112t70.5 81q-64 19 -93.5 66t-38.5 140q-30 307 -45 369q-16 69 -49 83q-17 7 -47 7l-63 -6zM0 -156h391v-26h-391v26zM0 -467h391v-29h-391v29zM0 1624v25h391v-25h-391zM0 1937v25h391v-25h-391zM8 -336h78v-86h-78v86zM8 1694 v88h78v-88h-78zM106 -227h78v-88h-78v88zM106 1802v86h78v-86h-78zM203 -336h78v-86h-78v86zM203 1694v88h78v-88h-78zM301 -227h78v-88h-78v88zM301 1802v86h78v-86h-78z" />
<glyph unicode="~" d="M0 -156h586v-26h-586v26zM0 -467h586v-29h-586v29zM0 1624v25h586v-25h-586zM0 1937v25h586v-25h-586zM8 -336h78v-86h-78v86zM8 1694v88h78v-88h-78zM106 -227h78v-88h-78v88zM106 1802v86h78v-86h-78zM129 741q55 123 113 123q16 0 74.5 -39t76.5 -39q57 0 109 132 l10 -138q-52 -123 -104 -123q-17 0 -78 38t-76 38q-56 0 -115 -133zM203 -336h78v-86h-78v86zM203 1694v88h78v-88h-78zM301 -227h78v-88h-78v88zM301 1802v86h78v-86h-78zM395 -336h78v-86h-78v86zM395 1694v88h78v-88h-78zM496 -227h75v-88h-75v88zM496 1802v86h75v-86 h-75z" />
<glyph unicode="&#xa0;" horiz-adv-x="389" d="M0 -156h391v-26h-391v26zM0 -467h391v-29h-391v29zM0 1624v25h391v-25h-391zM0 1937v25h391v-25h-391zM8 -336h78v-86h-78v86zM8 1694v88h78v-88h-78zM106 -227h78v-88h-78v88zM106 1802v86h78v-86h-78zM203 -336h78v-86h-78v86zM203 1694v88h78v-88h-78zM301 -227h78 v-88h-78v88zM301 1802v86h78v-86h-78z" />
<glyph unicode="&#xa1;" horiz-adv-x="389" d="M0 -156h391v-26h-391v26zM0 -467h391v-29h-391v29zM0 1624v25h391v-25h-391zM0 1937v25h391v-25h-391zM8 -336h78v-86h-78v86zM8 1694v88h78v-88h-78zM33 78l151 1083l197 -28l-152 -1084zM106 -227h78v-88h-78v88zM106 1802v86h78v-86h-78zM195 1239l32 225l197 -28 l-31 -224zM203 -336h78v-86h-78v86zM203 1694v88h78v-88h-78zM301 -227h78v-88h-78v88zM301 1802v86h78v-86h-78z" />
<glyph unicode="&#xa2;" d="M0 -156h586v-26h-586v26zM0 -467h586v-29h-586v29zM0 1624v25h586v-25h-586zM0 1937v25h586v-25h-586zM8 -336h78v-86h-78v86zM8 1694v88h78v-88h-78zM51 1069q0 77 43 132.5t113 76.5l-21 274l109 9l20 -273q137 -12 181 -135q18 -58 32 -279l-188 -12v72q0 121 -15 167 t-46 46q-26 0 -31.5 -14.5t-5.5 -57.5q0 -196 51 -749q3 -32 13.5 -47t33.5 -15q21 0 32 22.5t11 57.5q0 34 -23 250l187 12q18 -255 18 -262q0 -76 -45 -132t-117 -77l21 -248l-111 -8l-20 248q-81 9 -133.5 64.5t-55.5 138.5zM86 -227h98v-88h-78zM106 1802v86h78v-86h-78 zM184 -336h97v-86h-78zM203 1694v88h78v-88h-78zM301 -227h78v-88h-78v88zM301 1802v86h78v-86h-78zM379 -336h94v-86h-78zM395 1694v88h78v-88h-78zM496 -227h75v-88h-75v88zM496 1802v86h75v-86h-75z" />
<glyph unicode="&#xa3;" d="M-25 270q0 51 26 89t81 38q22 0 46 -8t36 -14.5t43 -24.5q4 18 4 64q0 113 -37 254l-139 -9l6 142l92 6q-29 76 -44.5 123.5t-29.5 125.5t-14 158q0 140 54.5 204.5t181.5 64.5q52 0 86.5 -16t55 -39t34.5 -75.5t20.5 -98.5t15.5 -135q1 -7 1 -11l-146 -31 q-12 128 -29.5 189t-54.5 61t-51 -23t-14 -83t10.5 -122.5t18.5 -92t33.5 -103.5t29.5 -88l182 10l-6 -141l-141 -8q16 -102 16 -174q0 -125 -33 -215q34 -17 64 -17q121 0 121 150l94 -23q8 -39 8 -75q0 -98 -57 -153.5t-125 -55.5q-45 0 -80 19t-78 56q-64 -71 -168 -71 q-66 0 -89.5 40.5t-23.5 112.5zM0 -156h586v-26h-586v26zM0 -467h586v-29h-586v29zM0 1624v25h586v-25h-586zM0 1937v25h586v-25h-586zM8 -336h78v-86h-78v86zM8 1694v88h78v-88h-78zM68 262q0 -19 9 -32t27 -13q42 2 76 41l-19.5 13t-22 14.5t-19 10.5t-17.5 5 q-15 0 -24.5 -10.5t-9.5 -28.5zM106 -227h78v-88h-78v88zM106 1802v86h78v-86h-78zM203 -336h78v-86h-78v86zM203 1694v88h78v-88h-78zM301 -227h78v-88h-78v88zM301 1802v86h78v-86h-78zM395 -336h78v-86h-78v86zM395 1694v88h78v-88h-78zM496 -227h75v-88h-75v88z M496 1802v86h75v-86h-75z" />
<glyph unicode="&#xa5;" d="M-16 473l12 113l166 -15l-10 168l-140 13l15 108l104 -8l-98 674l205 -19l59 -635l172 615l195 -17l-220 -643l125 -10l-10 -112l-156 12l-41 -164l183 -14l-15 -109l-172 12l-28 -346l-213 19l28 346zM0 -156h586v-26h-586v26zM0 -467h586v-29h-586v29zM0 1624v25h586 v-25h-586zM0 1937v25h586v-25h-586zM8 -336h78v-86h-78v86zM8 1694v88h78v-88h-78zM106 -227h78v-88h-78v88zM106 1802v86h78v-86h-78zM203 -336h78v-86h-78v86zM203 1694v88h78v-88h-78zM301 -227h78v-88h-78v88zM301 1802v86h78v-86h-78zM395 -336h78v-86h-78v86z M395 1694v88h78v-88h-78zM496 -227h75v-88h-75v88zM496 1802v86h75v-86h-75z" />
<glyph unicode="&#xa6;" horiz-adv-x="389" d="M0 -156h391v-26h-391v26zM0 -467h391v-29h-391v29zM0 1624v25h391v-25h-391zM0 1937v25h391v-25h-391zM8 -336h78v-86h-78v86zM8 1694v88h78v-88h-78zM106 -227h78v-88h-78v88zM106 1802v86h78v-86h-78zM135 -96v645h111v-645h-111zM135 973v608h111v-608h-111zM203 -336 h78v-86h-78v86zM203 1694v88h78v-88h-78zM301 -227h78v-88h-78v88zM301 1802v86h78v-86h-78z" />
<glyph unicode="&#xa8;" horiz-adv-x="870" d="M164 1466l190 -2v-219l-188 2zM518 1462l191 -2v-219l-189 2z" />
<glyph unicode="&#xa9;" horiz-adv-x="1644" d="M106 717q0 146 57 279t153 230t229.5 154.5t279.5 57.5q145 0 278.5 -57.5t230.5 -154.5t154.5 -230.5t57.5 -278.5q0 -146 -57.5 -279.5t-154.5 -229.5t-230 -153t-279 -57t-279.5 57t-229.5 153t-153 229.5t-57 279.5zM193 715q0 -174 84 -320t230.5 -231.5 t321.5 -85.5q130 0 248 50.5t204 135.5t136.5 203t50.5 248q0 129 -51 248t-136.5 205.5t-204 138t-247.5 51.5q-174 0 -321 -87.5t-231 -235t-84 -320.5zM457 707q0 198 97 324t261 126q205 0 299 -172l-135 -88q-68 92 -164 92q-92 0 -145.5 -75t-53.5 -207 q0 -122 58 -200.5t145 -78.5q43 0 86 21.5t74 58.5l129 -88q-98 -162 -293 -162q-154 0 -256 129t-102 320z" />
<glyph unicode="&#xab;" d="M0 -156h586v-26h-586v26zM0 -467h586v-29h-586v29zM0 1624v25h586v-25h-586zM0 1937v25h586v-25h-586zM8 -336h78v-86h-78v86zM8 1694v88h78v-88h-78zM41 803l235 205l13 -144l-158 -127l174 -100l12 -148l-266 175zM106 -227h78v-88h-78v88zM106 1802v86h78v-86h-78z M203 -336h78v-86h-78v86zM203 1694v88h78v-88h-78zM276 821l238 205l10 -143l-153 -127l172 -99l12 -149l-266 174zM301 -227h78v-88h-78v88zM301 1802v86h78v-86h-78zM395 -336h78v-86h-78v86zM395 1694v88h78v-88h-78zM496 -227h75v-88h-75v88zM496 1802v86h75v-86h-75z " />
<glyph unicode="&#xad;" horiz-adv-x="389" d="M0 -156h391v-26h-391v26zM0 -467h391v-29h-391v29zM0 1624v25h391v-25h-391zM0 1937v25h391v-25h-391zM8 -336h78v-86h-78v86zM8 1694v88h78v-88h-78zM86 610l4 148l246 -17l-10 -147zM106 -227h78v-88h-78v88zM106 1802v86h78v-86h-78zM203 -336h78v-86h-78v86z M203 1694v88h78v-88h-78zM301 -227h78v-88h-78v88zM301 1802v86h78v-86h-78z" />
<glyph unicode="&#xae;" horiz-adv-x="1398" d="M121 913q0 111 43.5 211.5t119.5 175t185 118.5t233 44q167 0 302.5 -72t211.5 -197.5t76 -279.5q0 -142 -77 -267t-213.5 -201t-299.5 -76q-124 0 -233 45t-184.5 119.5t-119.5 173.5t-44 206zM231 913q0 -83 33 -162t91.5 -142t148 -101.5t194.5 -38.5q136 0 251 58.5 t182 160.5t67 225q0 82 -37.5 162t-102 142.5t-159.5 101.5t-201 39q-105 0 -194.5 -38.5t-148 -102t-91.5 -142.5t-33 -162zM520 608v594h213q84 0 134.5 -50t50.5 -140q0 -58 -23 -94.5t-76 -73.5l105 -236h-123l-103 217h-61v-217h-117zM637 948h98q62 0 62 64 q0 71 -62 71h-98v-135z" />
<glyph unicode="&#xaf;" horiz-adv-x="870" d="M113 1280v147l663 -8l-2 -147z" />
<glyph unicode="&#xb4;" horiz-adv-x="401" d="M49 1176l141 251h177l-220 -251h-98z" />
<glyph unicode="&#xb7;" d="M0 -156h586v-26h-586v26zM0 -467h586v-29h-586v29zM0 1624v25h586v-25h-586zM0 1937v25h586v-25h-586zM8 -336h78v-86h-78v86zM8 1694v88h78v-88h-78zM106 -227h78v-88h-78v88zM106 1802v86h78v-86h-78zM197 688l49 215l182 -41l-49 -215zM203 -336h78v-86h-78v86z M203 1694v88h78v-88h-78zM301 -227h78v-88h-78v88zM301 1802v86h78v-86h-78zM395 -336h78v-86h-78v86zM395 1694v88h78v-88h-78zM496 -227h75v-88h-75v88zM496 1802v86h75v-86h-75z" />
<glyph unicode="&#xb8;" horiz-adv-x="468" d="M96 -178l74 287l190 -50l-151 -268z" />
<glyph unicode="&#xbb;" d="M0 -156h586v-26h-586v26zM0 -467h586v-29h-586v29zM0 1624v25h586v-25h-586zM0 1937v25h586v-25h-586zM8 -336h78v-86h-78v86zM8 1694v88h78v-88h-78zM55 498l6 149l168 107l-159 120l6 144l243 -197l-4 -139zM106 -227h78v-88h-78v88zM106 1802v86h78v-86h-78zM203 -336 h78v-86h-78v86zM203 1694v88h78v-88h-78zM293 487l6 150l170 106l-162 121l6 144l244 -197l-4 -139zM301 -227h78v-88h-78v88zM301 1802v86h78v-86h-78zM395 -336h78v-86h-78v86zM395 1694v88h78v-88h-78zM496 -227h75v-88h-75v88zM496 1802v86h75v-86h-75z" />
<glyph unicode="&#xbf;" d="M0 -156h586v-26h-586v26zM0 -467h586v-29h-586v29zM0 1624v25h586v-25h-586zM0 1937v25h586v-25h-586zM8 -336h78v-86h-78v86zM8 1694v88h78v-88h-78zM27 299q0 25 2 37q8 59 12 89t11 69.5t8.5 53t11 41.5t11 33.5t15.5 31t18 31t25 37l31 46.5q29 44 49.5 87.5t33.5 94 t19 81.5t14.5 94.5t12.5 88.5l184 -28l-39 -273q-8 -52 -57 -144.5t-96.5 -175t-50.5 -112.5q-7 -56 -14.5 -106.5t-11 -73.5t-3.5 -25q0 -57 39 -57q38 0 47 60l47 339l189 -26l-48 -318q-10 -87 -70.5 -139.5t-148.5 -52.5q-100 0 -170.5 62t-70.5 155zM106 -227h78v-88 h-78v88zM106 1802v86h78v-86h-78zM203 -336h78v-86h-78v86zM203 1694v88h78v-88h-78zM301 -227h78v-88h-78v88zM301 1802v86h78v-86h-78zM311 1292l31 224l186 -27l-30 -223zM395 -336h78v-86h-78v86zM395 1694v88h78v-88h-78zM496 -227h75v-88h-75v88zM496 1802v86h75v-86 h-75z" />
<glyph unicode="&#xc0;" d="M0 -156h586v-26h-586v26zM0 -467h586v-29h-586v29zM0 1624v25h586v-25h-586zM0 1937v25h586v-25h-586zM8 -336h78v-86h-78v86zM8 1694v88h78v-88h-78zM12 -94l215 1394l316 -14l104 -1403l-213 8l-31 377l-129 6l-57 -376zM106 -227h78v-88h-78v88zM106 1802v86h78v-86 h-78zM168 1587h176l143 -250h-98zM203 -336h78v-86h-78v86zM203 1694v88h78v-88h-78zM299 455l96 -4l-24 630zM301 -227h78v-88h-78v88zM301 1802v86h78v-86h-78zM395 -336h78v-86h-78v86zM395 1694v88h78v-88h-78zM496 -227h75v-88h-75v88zM496 1802v86h75v-86h-75z" />
<glyph unicode="&#xc1;" d="M0 -96l215 1394l315 -14l105 -1403l-213 8l-31 377l-129 6l-57 -376zM0 -156h586v-26h-586v26zM0 -467h586v-29h-586v29zM0 1624v25h586v-25h-586zM0 1937v25h586v-25h-586zM8 -336h78v-86h-78v86zM8 1694v88h78v-88h-78zM106 -227h78v-88h-78v88zM106 1802v86h78v-86 h-78zM203 -336h78v-86h-78v86zM203 1694v88h78v-88h-78zM231 1348l150 245l176 -6l-227 -244zM287 453l96 -4l-25 630zM301 -227h78v-88h-78v88zM301 1802v86h78v-86h-78zM395 -336h78v-86h-78v86zM395 1694v88h78v-88h-78zM496 -227h75v-88h-75v88zM496 1802v86h75v-86h-75 z" />
<glyph unicode="&#xc2;" d="M0 -156h586v-26h-586v26zM0 -467h586v-29h-586v29zM0 1624v25h586v-25h-586zM0 1937v25h586v-25h-586zM8 -336h78v-86h-78v86zM8 1694v88h78v-88h-78zM20 -76l216 1395l315 -14l104 -1403l-213 8l-30 377l-129 6l-58 -377zM106 -227h78v-88h-78v88zM106 1802v86h78v-86 h-78zM115 1370l223 238l151 -9l201 -262l-164 11l-116 176l-136 -162zM203 -336h78v-86h-78v86zM203 1694v88h78v-88h-78zM301 -227h78v-88h-78v88zM301 1802v86h78v-86h-78zM307 473l96 -4l-24 631zM395 -336h78v-86h-78v86zM395 1694v88h78v-88h-78zM496 -227h75v-88h-75 v88zM496 1802v86h75v-86h-75z" />
<glyph unicode="&#xc3;" d="M0 -156h586v-26h-586v26zM0 -467h586v-29h-586v29zM0 1624v25h586v-25h-586zM0 1937v25h586v-25h-586zM8 -336h78v-86h-78v86zM8 1694v88h78v-88h-78zM20 -78l216 1395l315 -14l104 -1403l-213 8l-30 377l-129 6l-58 -377zM57 1436q70 135 195 135q52 0 92.5 -17.5 t73.5 -35t69 -17.5q77 0 117 88l80 -94q-46 -123 -188 -123q-48 0 -117.5 37t-106.5 37q-67 0 -122 -88zM106 -227h78v-88h-78v88zM106 1802v86h78v-86h-78zM203 -336h78v-86h-78v86zM203 1694v88h78v-88h-78zM301 -227h78v-88h-78v88zM301 1802v86h78v-86h-78zM307 471 l96 -4l-24 631zM395 -336h78v-86h-78v86zM395 1694v88h78v-88h-78zM496 -227h75v-88h-75v88zM496 1802v86h75v-86h-75z" />
<glyph unicode="&#xc4;" d="M0 -76l215 1395l315 -14l105 -1403l-213 8l-31 377l-129 6l-57 -377zM0 -156h586v-26h-586v26zM0 -467h586v-29h-586v29zM0 1624v25h586v-25h-586zM0 1937v25h586v-25h-586zM8 -336h78v-86h-78v86zM8 1694v88h78v-88h-78zM106 -227h78v-88h-78v88zM106 1802v86h78v-86 h-78zM113 1386l6 220l190 -11l-8 -217zM203 -336h78v-86h-78v86zM203 1694v88h78v-88h-78zM287 473l96 -4l-25 631zM301 -227h78v-88h-78v88zM301 1802v86h78v-86h-78zM395 -336h78v-86h-78v86zM395 1694v88h78v-88h-78zM467 1370l6 217l191 -8l-9 -219zM496 -227h75v-88 h-75v88zM496 1802v86h75v-86h-75z" />
<glyph unicode="&#xc5;" d="M-23 -92l216 1395l79 -5q-35 20 -55 57t-20 81q0 68 46 114.5t113 46.5q68 0 115 -47t47 -114q0 -48 -24.5 -86.5t-65.5 -59.5l80 -2l104 -1403l-213 9l-30 376l-129 6l-58 -376zM0 -156h586v-26h-586v26zM0 -467h586v-29h-586v29zM0 1624v25h586v-25h-586zM0 1937v25 h586v-25h-586zM8 -336h78v-86h-78v86zM8 1694v88h78v-88h-78zM106 -227h78v-88h-78v88zM106 1802v86h78v-86h-78zM203 -336h78v-86h-78v86zM203 1694v88h78v-88h-78zM260 1436q0 -40 28 -68.5t68 -28.5t69.5 28.5t29.5 68.5t-29.5 69t-69.5 29t-68 -29t-28 -69zM264 457 l96 -4l-24 630zM301 -227h78v-88h-78v88zM301 1802v86h78v-86h-78zM395 -336h78v-86h-78v86zM395 1694v88h78v-88h-78zM496 -227h75v-88h-75v88zM496 1802v86h75v-86h-75z" />
<glyph unicode="&#xc6;" horiz-adv-x="1165" d="M0 -156h1167v-26h-1167v26zM0 -467h1167v-29h-1167v29zM0 1624v25h1167v-25h-1167zM0 1937v25h1167v-25h-1167zM8 -336h78v-86h-78v86zM8 1694v88h78v-88h-78zM20 129l216 1395l315 -15l86 -1177l127 1184l459 -50l-21 -190l-252 27l-37 -351l246 -24l-20 -183l-246 27 l-49 -479l252 -27l-21 -190l-422 43l2 -13l-213 9l-30 377l-129 6l-58 -377zM106 -227h78v-88h-78v88zM106 1802v86h78v-86h-78zM203 -336h78v-86h-78v86zM203 1694v88h78v-88h-78zM301 -227h78v-88h-78v88zM301 1802v86h78v-86h-78zM307 678l96 -4l-24 631zM395 -336h78 v-86h-78v86zM395 1694v88h78v-88h-78zM496 -227h75v-88h-75v88zM496 1802v86h75v-86h-75zM590 -336h78v-86h-78v86zM590 1694v88h78v-88h-78zM688 -227h78v-88h-78v88zM688 1802v86h78v-86h-78zM784 -336h78v-86h-78v86zM784 1694v88h78v-88h-78zM883 -227h78v-88h-78v88z M883 1802v86h78v-86h-78zM979 -336h78v-86h-78v86zM979 1694v88h78v-88h-78zM1077 -227h78v-88h-78v88zM1077 1802v86h78v-86h-78z" />
<glyph unicode="&#xc7;" d="M-8 416q0 25 2 37l96 919q24 238 250 238q291 0 291 -275q-10 -98 -33 -297l-207 23q8 85 16.5 164t11.5 110t3 33q0 78 -57 78q-29 0 -43 -19.5t-19 -60.5l-102 -958q0 -41 13 -60.5t44 -19.5q57 0 66 84l30 313l209 -25l-33 -305q-12 -110 -84 -177.5t-180 -67.5h-18 l106 -27l-151 -268l-113 30l72 281q-76 28 -123 95t-47 155zM0 -156h586v-26h-586v26zM0 -467h586v-29h-586v29zM0 1624v25h586v-25h-586zM0 1937v25h586v-25h-586zM8 -336h78v-86h-78v86zM8 1694v88h78v-88h-78zM106 -227h78v-88h-78v88zM106 1802v86h78v-86h-78zM203 -336 h78v-86h-78v86zM203 1694v88h78v-88h-78zM301 -227h78v-88h-78v88zM301 1802v86h78v-86h-78zM395 -336h78v-86h-78v86zM395 1694v88h78v-88h-78zM496 -227h75v-88h-75v88zM496 1802v86h75v-86h-75z" />
<glyph unicode="&#xc8;" d="M0 -156h586v-26h-586v26zM0 -467h586v-29h-586v29zM0 1624v25h586v-25h-586zM0 1937v25h586v-25h-586zM8 -336h78v-86h-78v86zM8 1694v88h78v-88h-78zM33 -80l149 1391l457 -49l-21 -191l-249 27l-37 -350l246 -25l-21 -182l-246 26l-49 -479l250 -27l-20 -190zM106 -227 h78v-88h-78v88zM106 1802v86h78v-86h-78zM203 -336h78v-86h-78v86zM203 1694v88h78v-88h-78zM260 1599l174 -22l113 -264l-96 12zM301 -227h78v-88h-78v88zM301 1802v86h78v-86h-78zM395 -336h78v-86h-78v86zM395 1694v88h78v-88h-78zM496 -227h75v-88h-75v88zM496 1802v86 h75v-86h-75z" />
<glyph unicode="&#xc9;" d="M0 -156h586v-26h-586v26zM0 -467h586v-29h-586v29zM0 1624v25h586v-25h-586zM0 1937v25h586v-25h-586zM8 -336h78v-86h-78v86zM8 1694v88h78v-88h-78zM39 -51l149 1390l457 -49l-20 -190l-250 26l-37 -350l246 -24l-21 -183l-246 27l-49 -479l250 -27l-20 -190zM106 -227 h78v-88h-78v88zM106 1802v86h78v-86h-78zM203 -336h78v-86h-78v86zM203 1694v88h78v-88h-78zM301 -227h78v-88h-78v88zM301 1802v86h78v-86h-78zM348 1362l168 235l176 -20l-248 -225zM395 -336h78v-86h-78v86zM395 1694v88h78v-88h-78zM496 -227h75v-88h-75v88zM496 1802 v86h75v-86h-75z" />
<glyph unicode="&#xca;" d="M0 -156h586v-26h-586v26zM0 -467h586v-29h-586v29zM0 1624v25h586v-25h-586zM0 1937v25h586v-25h-586zM8 -336h78v-86h-78v86zM8 1694v88h78v-88h-78zM33 -80l149 1391l457 -49l-21 -191l-249 27l-37 -350l246 -25l-21 -182l-246 26l-49 -479l250 -27l-20 -190zM106 -227 h78v-88h-78v88zM106 1802v86h78v-86h-78zM139 1372l238 225l151 -16l185 -272l-162 18l-109 182l-143 -155zM203 -336h78v-86h-78v86zM203 1694v88h78v-88h-78zM301 -227h78v-88h-78v88zM301 1802v86h78v-86h-78zM395 -336h78v-86h-78v86zM395 1694v88h78v-88h-78zM496 -227 h75v-88h-75v88zM496 1802v86h75v-86h-75z" />
<glyph unicode="&#xcb;" d="M0 -156h586v-26h-586v26zM0 -467h586v-29h-586v29zM0 1624v25h586v-25h-586zM0 1937v25h586v-25h-586zM8 -336h78v-86h-78v86zM8 1694v88h78v-88h-78zM47 -61l150 1390l456 -49l-20 -190l-250 26l-37 -350l246 -25l-21 -182l-245 27l-50 -480l250 -26l-20 -191zM106 -227 h78v-88h-78v88zM106 1802v86h78v-86h-78zM203 -336h78v-86h-78v86zM203 1368l16 217l191 -18l-19 -217zM203 1694v88h78v-88h-78zM301 -227h78v-88h-78v88zM301 1802v86h78v-86h-78zM395 -336h78v-86h-78v86zM395 1694v88h78v-88h-78zM469 1337l16 217l191 -18l-19 -217z M496 -227h75v-88h-75v88zM496 1802v86h75v-86h-75z" />
<glyph unicode="&#xcc;" horiz-adv-x="389" d="M-57 1602h176l143 -250h-98zM0 -156h391v-26h-391v26zM0 -467h391v-29h-391v29zM0 1624v25h391v-25h-391zM0 1937v25h391v-25h-391zM8 -336h78v-86h-78v86zM8 1694v88h78v-88h-78zM68 1282l208 6l25 -1399l-215 -6zM106 -227h78v-88h-78v88zM106 1802v86h78v-86h-78z M203 -336h78v-86h-78v86zM203 1694v88h78v-88h-78zM301 -227h78v-88h-78v88zM301 1802v86h78v-86h-78z" />
<glyph unicode="&#xcd;" horiz-adv-x="389" d="M0 -156h391v-26h-391v26zM0 -467h391v-29h-391v29zM0 1624v25h391v-25h-391zM0 1937v25h391v-25h-391zM8 -336h78v-86h-78v86zM8 1694v88h78v-88h-78zM68 -96v1399l208 6l25 -1399zM72 1343l141 252h176l-219 -252h-98zM106 -227h78v-88h-78v88zM106 1802v86h78v-86h-78z M203 -336h78v-86h-78v86zM203 1694v88h78v-88h-78zM301 -227h78v-88h-78v88zM301 1802v86h78v-86h-78z" />
<glyph unicode="&#xce;" horiz-adv-x="389" d="M-123 1323l199 258l151 6l226 -239l-162 -7l-135 164l-119 -176zM0 -156h391v-26h-391v26zM0 -467h391v-29h-391v29zM0 1624v25h391v-25h-391zM0 1937v25h391v-25h-391zM8 -336h78v-86h-78v86zM8 1694v88h78v-88h-78zM68 1282l208 6l25 -1399l-221 -6zM106 -227h78v-88 h-78v88zM106 1802v86h78v-86h-78zM203 -336h78v-86h-78v86zM203 1694v88h78v-88h-78zM301 -227h78v-88h-78v88zM301 1802v86h78v-86h-78z" />
<glyph unicode="&#xcf;" horiz-adv-x="389" d="M-74 1581l191 6l8 -219l-188 -6zM0 -156h391v-26h-391v26zM0 -467h391v-29h-391v29zM0 1624v25h391v-25h-391zM0 1937v25h391v-25h-391zM8 -336h78v-86h-78v86zM8 1694v88h78v-88h-78zM68 1323l208 6l25 -1399l-215 -6zM106 -227h78v-88h-78v88zM106 1802v86h78v-86h-78z M203 -336h78v-86h-78v86zM203 1694v88h78v-88h-78zM209 1587l190 6l9 -219l-189 -4zM301 -227h78v-88h-78v88zM301 1802v86h78v-86h-78z" />
<glyph unicode="&#xd0;" d="M0 -156h586v-26h-586v26zM0 -467h586v-29h-586v29zM0 1624v25h586v-25h-586zM0 1937v25h586v-25h-586zM6 1526l295 33q244 0 268 -230l95 -885v-43q0 -114 -69.5 -172t-223.5 -75l-221 -19l-64 606l-43 -6l-16 142l45 6zM8 -336h78v-86h-78v86zM8 1694v88h78v-88h-78z M106 -227h78v-88h-78v88zM106 1802v86h78v-86h-78zM203 -336h78v-86h-78v86zM203 1694v88h78v-88h-78zM227 1389l49 -474l82 15l19 -142l-84 -14l47 -448q73 11 93 25.5t20 58.5l-93 901q-9 80 -79 80q-29 0 -54 -2zM301 -227h78v-88h-78v88zM301 1802v86h78v-86h-78z M395 -336h78v-86h-78v86zM395 1694v88h78v-88h-78zM496 -227h75v-88h-75v88zM496 1802v86h75v-86h-75z" />
<glyph unicode="&#xd1;" d="M-14 1438q70 135 194 135q52 0 92.5 -17.5t74 -35t69.5 -17.5q76 0 116 88l80 -94q-46 -123 -188 -123q-48 0 -117 37t-106 37q-68 0 -123 -88zM0 -156h586v-26h-586v26zM0 -467h586v-29h-586v29zM0 1624v25h586v-25h-586zM0 1937v25h586v-25h-586zM8 -336h78v-86h-78v86 zM8 1694v88h78v-88h-78zM18 -80v1393h318l147 -1225v1223l150 -4v-1393h-309l-158 1233v-1231zM106 -227h78v-88h-78v88zM106 1802v86h78v-86h-78zM203 -336h78v-86h-78v86zM203 1694v88h78v-88h-78zM301 -227h78v-88h-78v88zM301 1802v86h78v-86h-78zM395 -336h78v-86h-78 v86zM395 1694v88h78v-88h-78zM496 -227h75v-88h-75v88zM496 1802v86h75v-86h-75z" />
<glyph unicode="&#xd2;" d="M0 -156h586v-26h-586v26zM0 -467h586v-29h-586v29zM0 1624v25h586v-25h-224l123 -242l-98 7l-190 235h-197zM0 1937v25h586v-25h-586zM8 -336h78v-86h-78v86zM8 1694v88h78v-88h-78zM29 168q0 21 2 31l80 919q8 110 82 179t186 69q117 0 193.5 -74.5t76.5 -191.5 l-80 -950q-9 -110 -84 -181t-184 -71q-117 0 -194.5 76.5t-77.5 193.5zM106 -227h78v-88h-78v88zM106 1802v86h78v-86h-78zM203 -336h78v-86h-78v86zM203 1694v88h78v-88h-78zM238 158q0 -41 13 -60.5t44 -19.5q59 0 65 82l82 958q0 78 -57 78t-63 -80zM301 -227h78v-88h-78 v88zM301 1802v86h78v-86h-78zM395 -336h78v-86h-78v86zM395 1694v88h78v-88h-78zM496 -227h75v-88h-75v88zM496 1802v86h75v-86h-75z" />
<glyph unicode="&#xd3;" d="M0 -156h586v-26h-586v26zM0 -467h586v-29h-586v29zM0 1624v25h586v-21l123 -10l-244 -229l-98 10l157 225h-524zM0 1937v25h586v-25h-586zM8 -336h78v-86h-78v86zM8 1694v88h78v-88h-78zM29 168q0 21 2 31l80 919q8 110 82 179t186 69q117 0 193.5 -74.5t76.5 -191.5 l-80 -950q-9 -110 -84 -181t-184 -71q-117 0 -194.5 76.5t-77.5 193.5zM106 -227h78v-88h-78v88zM106 1802v86h78v-86h-78zM203 -336h78v-86h-78v86zM203 1694v88h78v-88h-78zM238 158q0 -41 13 -60.5t44 -19.5q59 0 65 82l82 958q0 78 -57 78t-63 -80zM301 -227h78v-88h-78 v88zM301 1802v86h78v-86h-78zM395 -336h78v-86h-78v86zM395 1694v88h78v-88h-78zM496 -227h75v-88h-75v88zM496 1802v86h75v-86h-75z" />
<glyph unicode="&#xd4;" d="M0 -156h586v-26h-586v26zM0 -467h586v-29h-586v29zM0 1624v25h586v-25h-37l172 -281l-162 27l-96 189l-154 -148l-157 25l219 188h-371zM0 1937v25h586v-25h-586zM8 -336h78v-86h-78v86zM8 1694v88h78v-88h-78zM29 168q0 21 2 31l80 919q8 110 82 179t186 69 q117 0 193.5 -74.5t76.5 -191.5l-80 -950q-9 -110 -84 -181t-184 -71q-117 0 -194.5 76.5t-77.5 193.5zM106 -227h78v-88h-78v88zM106 1802v86h78v-86h-78zM203 -336h78v-86h-78v86zM203 1694v88h78v-88h-78zM238 158q0 -41 13 -60.5t44 -19.5q59 0 65 82l82 958 q0 78 -57 78t-63 -80zM301 -227h78v-88h-78v88zM301 1802v86h78v-86h-78zM395 -336h78v-86h-78v86zM395 1694v88h78v-88h-78zM496 -227h75v-88h-75v88zM496 1802v86h75v-86h-75z" />
<glyph unicode="&#xd5;" d="M0 -156h586v-26h-586v26zM0 -467h586v-29h-586v29zM0 1624v25h586v-25h-586zM0 1937v25h586v-25h-586zM8 -336h78v-86h-78v86zM8 1694v88h78v-88h-78zM29 141q0 21 2 31l80 920q8 110 82 178.5t186 68.5q117 0 193.5 -74.5t76.5 -191.5l-80 -950q-9 -110 -84 -181 t-184 -71q-117 0 -194.5 76.5t-77.5 193.5zM106 -227h78v-88h-78v88zM106 1802v86h78v-86h-78zM109 1440q70 135 194 135q52 0 92.5 -17.5t74 -35t69.5 -17.5q76 0 116 88l80 -94q-47 -123 -188 -123q-48 0 -117 37t-106 37q-68 0 -123 -88zM203 -336h78v-86h-78v86z M203 1694v88h78v-88h-78zM238 131q0 -41 13 -60.5t44 -19.5q59 0 65 82l82 959q0 77 -57 77t-63 -79zM301 -227h78v-88h-78v88zM301 1802v86h78v-86h-78zM395 -336h78v-86h-78v86zM395 1694v88h78v-88h-78zM496 -227h75v-88h-75v88zM496 1802v86h75v-86h-75z" />
<glyph unicode="&#xd6;" d="M0 -156h586v-26h-586v26zM0 -467h586v-29h-586v29zM0 1624v25h586v-25h-332l113 -14l-27 -217l-186 24l20 207h-174zM0 1937v25h586v-25h-586zM8 -336h78v-86h-78v86zM8 1694v88h78v-88h-78zM29 147q0 21 2 31l80 920q8 110 82 179t186 69q117 0 193.5 -75t76.5 -192 l-80 -950q-9 -110 -84 -181t-184 -71q-117 0 -194.5 76.5t-77.5 193.5zM106 -227h78v-88h-78v88zM106 1802v86h78v-86h-78zM203 -336h78v-86h-78v86zM203 1694v88h78v-88h-78zM238 137q0 -41 13 -60.5t44 -19.5q59 0 65 82l82 959q0 78 -57 78t-63 -80zM301 -227h78v-88h-78 v88zM301 1802v86h78v-86h-78zM395 -336h78v-86h-78v86zM395 1694v88h78v-88h-78zM496 -227h75v-88h-75v88zM496 1802v86h75v-86h-75zM504 1372l24 217l189 -24l-25 -217z" />
<glyph unicode="&#xd7;" d="M0 -156h586v-26h-586v26zM0 -467h586v-29h-586v29zM0 1624v25h586v-25h-586zM0 1937v25h586v-25h-586zM8 -336h78v-86h-78v86zM8 1694v88h78v-88h-78zM86 1044l57 56l179 -174l184 184l57 -57l-178 -185l178 -176l-55 -59l-182 176l-179 -186l-59 59l178 184zM106 -227 h78v-88h-78v88zM106 1802v86h78v-86h-78zM203 -336h78v-86h-78v86zM203 1694v88h78v-88h-78zM301 -227h78v-88h-78v88zM301 1802v86h78v-86h-78zM395 -336h78v-86h-78v86zM395 1694v88h78v-88h-78zM496 -227h75v-88h-75v88zM496 1802v86h75v-86h-75z" />
<glyph unicode="&#xd8;" d="M-76 414l125 153l62 715q8 110 82 179t186 69q104 0 179 -63.5t89 -157.5l55 65l50 -31l-105 -122l-78 -908q-9 -110 -84 -181t-184 -71q-117 0 -194.5 77t-77.5 194q0 20 2 30l10 117l-84 -104zM0 -156h586v-26h-586v26zM0 -467h586v-29h-586v29zM0 1624v25h586v-25 h-586zM0 1937v25h586v-25h-586zM8 -336h78v-86h-78v86zM8 1694v88h78v-88h-78zM106 -227h78v-88h-78v88zM106 1802v86h78v-86h-78zM203 -336h78v-86h-78v86zM203 1694v88h78v-88h-78zM238 322q0 -41 13 -60.5t44 -19.5q59 0 65 82l52 606l-136 -166zM285 860l135 168l22 254 q0 78 -57 78t-63 -80zM301 -227h78v-88h-78v88zM301 1802v86h78v-86h-78zM395 -336h78v-86h-78v86zM395 1694v88h78v-88h-78zM496 -227h75v-88h-75v88zM496 1802v86h75v-86h-75z" />
<glyph unicode="&#xd9;" d="M0 -156h586v-26h-586v26zM0 -467h586v-29h-586v29zM0 1624v25h586v-25h-193l105 -270l-99 14l-166 256h-233zM0 1937v25h586v-25h-586zM6 164q0 29 2 45l142 1151l206 -25l-141 -1181q0 -76 55 -76q57 0 66 82l143 1159l207 -27l-141 -1151q-14 -110 -85 -175.5 t-179 -65.5q-118 0 -196.5 74.5t-78.5 189.5zM8 -336h78v-86h-78v86zM8 1694v88h78v-88h-78zM106 -227h78v-88h-78v88zM106 1802v86h78v-86h-78zM203 -336h78v-86h-78v86zM203 1694v88h78v-88h-78zM301 -227h78v-88h-78v88zM301 1802v86h78v-86h-78zM395 -336h78v-86h-78v86 zM395 1694v88h78v-88h-78zM496 -227h75v-88h-75v88zM496 1802v86h75v-86h-75z" />
<glyph unicode="&#xda;" d="M0 -156h586v-26h-586v26zM0 -467h586v-29h-586v29zM0 1624v25h586v-25h-586zM0 1937v25h586v-25h-586zM6 143q0 29 2 45l142 1151l206 -24l-141 -1182q0 -76 55 -76q57 0 66 82l143 1159l207 -26l-141 -1151q-14 -110 -85 -176t-179 -66q-118 0 -196.5 74.5t-78.5 189.5z M8 -336h78v-86h-78v86zM8 1694v88h78v-88h-78zM106 -227h78v-88h-78v88zM106 1802v86h78v-86h-78zM203 -336h78v-86h-78v86zM203 1694v88h78v-88h-78zM301 -227h78v-88h-78v88zM301 1802v86h78v-86h-78zM381 1360l160 239l174 -12l-238 -235zM395 -336h78v-86h-78v86z M395 1694v88h78v-88h-78zM496 -227h75v-88h-75v88zM496 1802v86h75v-86h-75z" />
<glyph unicode="&#xdb;" d="M0 -156h586v-26h-586v26zM0 -467h586v-29h-586v29zM0 1624v25h586v-25h-586zM0 1937v25h586v-25h-586zM6 123q0 29 2 45l142 1151l206 -25l-141 -1181q0 -76 55 -76q57 0 66 82l143 1159l207 -27l-141 -1151q-14 -110 -85 -175.5t-179 -65.5q-118 0 -196.5 74.5 t-78.5 189.5zM8 -336h78v-86h-78v86zM8 1694v88h78v-88h-78zM106 -227h78v-88h-78v88zM106 1802v86h78v-86h-78zM145 1372l238 223l152 -18l184 -272l-162 18l-106 184l-148 -153zM203 -336h78v-86h-78v86zM203 1694v88h78v-88h-78zM301 -227h78v-88h-78v88zM301 1802v86h78 v-86h-78zM395 -336h78v-86h-78v86zM395 1694v88h78v-88h-78zM496 -227h75v-88h-75v88zM496 1802v86h75v-86h-75z" />
<glyph unicode="&#xdc;" d="M0 -156h586v-26h-586v26zM0 -467h586v-29h-586v29zM0 1624v25h586v-25h-586zM0 1937v25h586v-25h-586zM6 143q0 29 2 45l142 1151l206 -24l-141 -1182q0 -76 55 -76q57 0 66 82l143 1159l207 -26l-141 -1151q-14 -110 -85 -176t-179 -66q-118 0 -196.5 74.5t-78.5 189.5z M8 -336h78v-86h-78v86zM8 1694v88h78v-88h-78zM106 -227h78v-88h-78v88zM106 1802v86h78v-86h-78zM158 1393l20 219l191 -23l-23 -219zM203 -336h78v-86h-78v86zM203 1694v88h78v-88h-78zM301 -227h78v-88h-78v88zM301 1802v86h78v-86h-78zM395 -336h78v-86h-78v86z M395 1694v88h78v-88h-78zM496 -227h75v-88h-75v88zM496 1802v86h75v-86h-75zM510 1352l20 219l191 -23l-23 -219z" />
<glyph unicode="&#xdd;" d="M0 -156h586v-26h-586v26zM0 -467h586v-29h-586v29zM0 1624v25h586v-25h-586zM0 1937v25h586v-25h-586zM8 -336h78v-86h-78v86zM8 1694v88h78v-88h-78zM33 1321l205 -18l63 -617l168 596l195 -16l-289 -852l-45 -523l-213 19l28 348q15 175 15 209q0 17 -10 82t-20 121 l-11 57zM106 -227h78v-88h-78v88zM106 1802v86h78v-86h-78zM203 -336h78v-86h-78v86zM203 1694v88h78v-88h-78zM301 -227h78v-88h-78v88zM301 1802v86h78v-86h-78zM303 1350l180 225l174 -29l-258 -211zM395 -336h78v-86h-78v86zM395 1694v88h78v-88h-78zM496 -227h75v-88 h-75v88zM496 1802v86h75v-86h-75z" />
<glyph unicode="&#xde;" d="M0 -156h586v-26h-586v26zM0 -467h586v-29h-586v29zM0 1624v25h586v-25h-586zM0 1937v25h586v-25h-586zM8 -336h78v-86h-78v86zM8 1694v88h78v-88h-78zM16 127l99 1393l196 -11l-14 -233q168 -6 244.5 -64t76.5 -184l-12 -328q-12 -152 -81.5 -216t-217.5 -64q-38 0 -61 2 l-23 -311zM106 -227h78v-88h-78v88zM106 1802v86h78v-86h-78zM203 -336h78v-86h-78v86zM203 1694v88h78v-88h-78zM256 588q20 -2 43 -2q80 0 86 84q6 101 12 191l8.5 127.5t2.5 39.5q0 41 -26 58.5t-95 25.5zM301 -227h78v-88h-78v88zM301 1802v86h78v-86h-78zM395 -336h78 v-86h-78v86zM395 1694v88h78v-88h-78zM496 -227h75v-88h-75v88zM496 1802v86h75v-86h-75z" />
<glyph unicode="&#xdf;" horiz-adv-x="585" d="M0 -156h586v-26h-586v26zM0 -467h586v-29h-586v29zM0 1624v25h586v-25h-586zM0 1937v25h586v-25h-586zM8 -336h78v-86h-78v86zM8 1694v88h78v-88h-78zM23 127l98 1114q11 103 44 160t84 77.5t136 20.5q138 0 208.5 -56t70.5 -181q0 -14 -25 -273q-18 -186 -168 -192 q135 -35 135 -150q0 -72 -2 -125.5t-8.5 -116t-18 -107.5t-32 -89.5t-49.5 -71.5t-71 -44t-95 -17q-14 0 -29 6l27 160q34 0 41 32q41 185 41 381q0 68 -109 78l14 148q6 -2 35 -2q32 2 55.5 32t36.5 79.5t19 105t6 116.5q0 131 -96 131q-31 0 -45.5 -23.5t-20.5 -94.5 l-96 -1116zM106 -227h78v-88h-78v88zM106 1802v86h78v-86h-78zM203 -336h78v-86h-78v86zM203 1694v88h78v-88h-78zM301 -227h78v-88h-78v88zM301 1802v86h78v-86h-78zM395 -336h78v-86h-78v86zM395 1694v88h78v-88h-78zM496 -227h75v-88h-75v88zM496 1802v86h75v-86h-75z " />
<glyph unicode="&#xe0;" d="M0 -156h586v-26h-586v26zM0 -467h586v-29h-586v29zM0 1624v25h586v-25h-586zM0 1937v25h586v-25h-586zM8 -336h78v-86h-78v86zM8 1694v88h78v-88h-78zM76 326q0 155 20 260t78 157l131 86q78 49 78 185q0 62 -9 85t-38 23q-26 0 -38.5 -40.5t-12.5 -96.5q0 -22 1 -64.5 t1 -62.5v-20l-183 8q0 124 5 203q6 97 69.5 157t161.5 60q99 0 163 -62t64 -160q0 -68 -17.5 -366.5t-17.5 -364.5q0 -113 9 -202l-185 8q-4 32 -4 57q0 4 1 14t1 15h-4q-52 -94 -143 -94q-131 0 -131 215zM106 -227h78v-88h-78v88zM106 1802v86h78v-86h-78zM119 1573h176 l143 -250h-98zM203 -336h78v-86h-78v86zM203 1694v88h78v-88h-78zM264 373q0 -30 1 -44t5 -32t14 -25.5t27 -7.5q40 0 43 60l15 374q-69 -42 -87 -109t-18 -216zM301 -227h78v-88h-78v88zM301 1802v86h78v-86h-78zM395 -336h78v-86h-78v86zM395 1694v88h78v-88h-78z M496 -227h75v-88h-75v88zM496 1802v86h75v-86h-75z" />
<glyph unicode="&#xe1;" d="M0 -156h586v-26h-586v26zM0 -467h586v-29h-586v29zM0 1624v25h586v-25h-586zM0 1937v25h586v-25h-586zM8 -336h78v-86h-78v86zM8 1694v88h78v-88h-78zM76 326q0 155 20 260t78 157l131 86q78 49 78 185q0 62 -9 85t-38 23q-26 0 -38.5 -40.5t-12.5 -96.5q0 -22 1 -64.5 t1 -62.5v-20l-183 8q0 124 5 203q6 97 69.5 157t161.5 60q99 0 163 -62t64 -160q0 -68 -17.5 -366.5t-17.5 -364.5q0 -113 9 -202l-185 8q-4 32 -4 57q0 4 1 14t1 15h-4q-52 -94 -143 -94q-131 0 -131 215zM106 -227h78v-88h-78v88zM106 1802v86h78v-86h-78zM203 -336h78 v-86h-78v86zM203 1694v88h78v-88h-78zM252 1325l141 252h176l-219 -252h-98zM264 373q0 -30 1 -44t5 -32t14 -25.5t27 -7.5q40 0 43 60l15 374q-69 -42 -87 -109t-18 -216zM301 -227h78v-88h-78v88zM301 1802v86h78v-86h-78zM395 -336h78v-86h-78v86zM395 1694v88h78v-88 h-78zM496 -227h75v-88h-75v88zM496 1802v86h75v-86h-75z" />
<glyph unicode="&#xe2;" d="M0 -156h586v-26h-586v26zM0 -467h586v-29h-586v29zM0 1624v25h586v-25h-586zM0 1937v25h586v-25h-586zM8 -336h78v-86h-78v86zM8 1694v88h78v-88h-78zM59 1303l211 249h152l215 -249h-164l-127 170l-127 -170h-160zM76 326q0 155 20 260t78 157l131 86q78 49 78 185 q0 62 -9 85t-38 23q-26 0 -38.5 -40.5t-12.5 -96.5q0 -22 1 -64.5t1 -62.5v-20l-183 8q0 124 5 203q6 97 69.5 157t161.5 60q99 0 163 -62t64 -160q0 -68 -17.5 -366.5t-17.5 -364.5q0 -113 9 -202l-185 8q-4 32 -4 57q0 4 1 14t1 15h-4q-52 -94 -143 -94q-131 0 -131 215z M106 -227h78v-88h-78v88zM106 1802v86h78v-86h-78zM203 -336h78v-86h-78v86zM203 1694v88h78v-88h-78zM264 373q0 -30 1 -44t5 -32t14 -25.5t27 -7.5q40 0 43 60l15 374q-69 -42 -87 -109t-18 -216zM301 -227h78v-88h-78v88zM301 1802v86h78v-86h-78zM395 -336h78v-86h-78 v86zM395 1694v88h78v-88h-78zM496 -227h75v-88h-75v88zM496 1802v86h75v-86h-75z" />
<glyph unicode="&#xe3;" d="M0 -156h586v-26h-586v26zM0 -467h586v-29h-586v29zM0 1624v25h586v-25h-586zM0 1937v25h586v-25h-586zM8 -336h78v-86h-78v86zM8 1694v88h78v-88h-78zM43 1395q70 135 195 135q52 0 92.5 -17.5t73.5 -35t69 -17.5q77 0 117 88l80 -94q-46 -123 -189 -123q-48 0 -117 37 t-106 37q-68 0 -123 -88zM76 326q0 155 20 260t78 157l131 86q78 49 78 185q0 62 -9 85t-38 23q-26 0 -38.5 -40.5t-12.5 -96.5q0 -22 1 -64.5t1 -62.5v-20l-183 8q0 124 5 203q6 97 69.5 157t161.5 60q99 0 163 -62t64 -160q0 -68 -17.5 -366.5t-17.5 -364.5q0 -113 9 -202 l-185 8q-4 32 -4 57q0 4 1 14t1 15h-4q-52 -94 -143 -94q-131 0 -131 215zM106 -227h78v-88h-78v88zM106 1802v86h78v-86h-78zM203 -336h78v-86h-78v86zM203 1694v88h78v-88h-78zM264 373q0 -30 1 -44t5 -32t14 -25.5t27 -7.5q40 0 43 60l15 374q-69 -42 -87 -109t-18 -216z M301 -227h78v-88h-78v88zM301 1802v86h78v-86h-78zM395 -336h78v-86h-78v86zM395 1694v88h78v-88h-78zM496 -227h75v-88h-75v88zM496 1802v86h75v-86h-75z" />
<glyph unicode="&#xe4;" d="M0 -156h586v-26h-586v26zM0 -467h586v-29h-586v29zM0 1624v25h586v-25h-586zM0 1937v25h586v-25h-586zM8 -336h78v-86h-78v86zM8 1694v88h78v-88h-78zM59 1544l191 -2v-219l-189 2zM76 326q0 155 20 260t78 157l131 86q78 49 78 185q0 62 -9 85t-38 23q-26 0 -38.5 -40.5 t-12.5 -96.5q0 -22 1 -64.5t1 -62.5v-20l-183 8q0 124 5 203q6 97 69.5 157t161.5 60q99 0 163 -62t64 -160q0 -68 -17.5 -366.5t-17.5 -364.5q0 -113 9 -202l-185 8q-4 32 -4 57q0 4 1 14t1 15h-4q-52 -94 -143 -94q-131 0 -131 215zM106 -227h78v-88h-78v88zM106 1802v86 h78v-86h-78zM203 -336h78v-86h-78v86zM203 1694v88h78v-88h-78zM264 373q0 -30 1 -44t5 -32t14 -25.5t27 -7.5q40 0 43 60l15 374q-69 -42 -87 -109t-18 -216zM301 -227h78v-88h-78v88zM301 1802v86h78v-86h-78zM395 -336h78v-86h-78v86zM395 1694v88h78v-88h-78zM414 1540 l190 -2v-219l-188 2zM496 -227h75v-88h-75v88zM496 1802v86h75v-86h-75z" />
<glyph unicode="&#xe5;" d="M0 -156h586v-26h-586v26zM0 -467h586v-29h-586v29zM0 1624v25h586v-25h-586zM0 1937v25h586v-25h-586zM8 -336h78v-86h-78v86zM8 1694v88h78v-88h-78zM76 326q0 155 20 260t78 157l131 86q78 49 78 185q0 62 -9 85t-38 23q-26 0 -38.5 -40.5t-12.5 -96.5q0 -22 1 -64.5 t1 -62.5v-20l-183 8q0 124 5 203q6 97 69.5 157t161.5 60q99 0 163 -62t64 -160q0 -68 -17.5 -366.5t-17.5 -364.5q0 -113 9 -202l-185 8q-4 32 -4 57q0 4 1 14t1 15h-4q-52 -94 -143 -94q-131 0 -131 215zM106 -227h78v-88h-78v88zM106 1802v86h78v-86h-78zM201 1452 q0 68 46 115t113 47q68 0 115 -47t47 -115q0 -67 -47 -113.5t-115 -46.5q-67 0 -113 46t-46 114zM203 -336h78v-86h-78v86zM203 1694v88h78v-88h-78zM264 373q0 -30 1 -44t5 -32t14 -25.5t27 -7.5q40 0 43 60l15 374q-69 -42 -87 -109t-18 -216zM264 1452q0 -40 28 -68 t68 -28t69.5 28.5t29.5 67.5q0 40 -29.5 69t-69.5 29t-68 -29t-28 -69zM301 -227h78v-88h-78v88zM301 1802v86h78v-86h-78zM395 -336h78v-86h-78v86zM395 1694v88h78v-88h-78zM496 -227h75v-88h-75v88zM496 1802v86h75v-86h-75z" />
<glyph unicode="&#xe6;" horiz-adv-x="972" d="M0 -156h973v-26h-973v26zM0 -467h973v-29h-973v29zM0 1624v25h973v-25h-973zM0 1937v25h973v-25h-973zM8 -336h78v-86h-78v86zM8 1694v88h78v-88h-78zM76 326q0 91 3 153t15 110t23.5 76.5t39.5 57t51.5 45t71.5 47.5q16 10 25 16q78 49 78 189q0 56 -9 79t-34 23 q-55 0 -55 -137q0 -88 2 -151l-183 8v207q11 98 75 157.5t161 59.5q89 0 152 -54q62 70 174 70q98 0 161.5 -59t69.5 -156l12 -389l-272 -10v-349q9 -63 57 -63q47 0 47 127q0 28 -8 112t-8 89l186 6q11 -234 11 -254q0 -97 -67 -158t-167 -61q-54 0 -106 26.5t-115 102.5 q-59 -64 -98 -93.5t-63.5 -35.5t-69.5 -6q-86 0 -123 52.5t-37 162.5zM106 -227h78v-88h-78v88zM106 1802v86h78v-86h-78zM203 -336h78v-86h-78v86zM203 1694v88h78v-88h-78zM264 373q0 -23 1 -38t5.5 -33.5t14.5 -28t26 -9.5q40 0 43 60l15 374q-68 -39 -86.5 -106 t-18.5 -219zM301 -227h78v-88h-78v88zM301 1802v86h78v-86h-78zM395 -336h78v-86h-78v86zM395 1694v88h78v-88h-78zM496 -227h75v-88h-75v88zM496 1802v86h75v-86h-75zM590 -336h78v-86h-78v86zM590 1694v88h78v-88h-78zM616 1030q0 -43 4.5 -125t12.5 -102l84 2l-10 278 q-3 56 -43 56q-30 0 -39 -29.5t-9 -79.5zM688 -227h78v-88h-78v88zM688 1802v86h78v-86h-78zM784 -336h78v-86h-78v86zM784 1694v88h78v-88h-78zM883 -227h78v-88h-78v88zM883 1802v86h78v-86h-78z" />
<glyph unicode="&#xe7;" d="M0 -156h586v-26h-586v26zM0 -467h586v-29h-586v29zM0 1624v25h586v-25h-586zM0 1937v25h586v-25h-586zM8 -336h78v-86h-78v86zM8 1694v88h78v-88h-78zM51 1135q0 97 66.5 159t167.5 62q165 0 211 -137q18 -58 32 -279l-188 -12v71q0 121 -15 167t-46 46q-26 0 -31.5 -14 t-5.5 -57q0 -197 51 -750q3 -32 13.5 -46.5t33.5 -14.5q21 0 32 22.5t11 57.5q0 33 -23 249l187 13q18 -255 18 -262q0 -97 -67.5 -158.5t-167.5 -61.5q-95 0 -158.5 56t-67.5 149zM106 -227h78v-88h-78v88zM106 1802v86h78v-86h-78zM203 -336h78v-86h-78v86zM203 1694v88 h78v-88h-78zM221 -117l74 287l190 -49l-151 -268zM301 -227h78v-88h-78v88zM301 1802v86h78v-86h-78zM395 -336h78v-86h-78v86zM395 1694v88h78v-88h-78zM496 -227h75v-88h-75v88zM496 1802v86h75v-86h-75z" />
<glyph unicode="&#xe8;" d="M0 -156h586v-26h-586v26zM0 -467h586v-29h-586v29zM0 1624v25h586v-25h-586zM0 1937v25h586v-25h-586zM8 -336h78v-86h-78v86zM8 1694v88h78v-88h-78zM35 1579h176l143 -250h-98zM47 1061q0 97 65 159t164 62q100 0 164.5 -59.5t67.5 -155.5l12 -389l-272 -10l10 -349 q0 -63 47 -63t47 127q0 29 -8 112t-8 89l186 6q3 -73 5.5 -136.5t3.5 -90.5l1 -27q0 -97 -65.5 -158t-165.5 -61q-98 0 -161.5 58t-69.5 155q-4 136 -8 261t-6.5 206.5t-4.5 143.5t-3 91zM106 -227h78v-88h-78v88zM106 1802v86h78v-86h-78zM203 -336h78v-86h-78v86z M203 1694v88h78v-88h-78zM231 1051q0 -102 13 -248l86 2l-11 278q-3 56 -45 56q-27 0 -35 -23t-8 -65zM301 -227h78v-88h-78v88zM301 1802v86h78v-86h-78zM395 -336h78v-86h-78v86zM395 1694v88h78v-88h-78zM496 -227h75v-88h-75v88zM496 1802v86h75v-86h-75z" />
<glyph unicode="&#xe9;" d="M0 -156h586v-26h-586v26zM0 -467h586v-29h-586v29zM0 1624v25h586v-25h-586zM0 1937v25h586v-25h-586zM8 -336h78v-86h-78v86zM8 1694v88h78v-88h-78zM47 1061q0 97 65 159t164 62q100 0 164.5 -59.5t67.5 -155.5l12 -389l-272 -10l10 -349q0 -63 47 -63t47 127 q0 29 -8 112t-8 89l186 6q3 -73 5.5 -136.5t3.5 -90.5l1 -27q0 -97 -65.5 -158t-165.5 -61q-98 0 -161.5 58t-69.5 155q-4 136 -8 261t-6.5 206.5t-4.5 143.5t-3 91zM106 -227h78v-88h-78v88zM106 1802v86h78v-86h-78zM139 1327l142 252h176l-219 -252h-99zM203 -336h78v-86 h-78v86zM203 1694v88h78v-88h-78zM231 1051q0 -102 13 -248l86 2l-11 278q-3 56 -45 56q-27 0 -35 -23t-8 -65zM301 -227h78v-88h-78v88zM301 1802v86h78v-86h-78zM395 -336h78v-86h-78v86zM395 1694v88h78v-88h-78zM496 -227h75v-88h-75v88zM496 1802v86h75v-86h-75z" />
<glyph unicode="&#xea;" d="M-8 1323l211 250h151l215 -250h-163l-127 170l-127 -170h-160zM0 -156h586v-26h-586v26zM0 -467h586v-29h-586v29zM0 1624v25h586v-25h-586zM0 1937v25h586v-25h-586zM8 -336h78v-86h-78v86zM8 1694v88h78v-88h-78zM47 1061q0 97 65 159t164 62q100 0 164.5 -59.5 t67.5 -155.5l12 -389l-272 -10l10 -349q0 -63 47 -63t47 127q0 29 -8 112t-8 89l186 6q3 -73 5.5 -136.5t3.5 -90.5l1 -27q0 -97 -65.5 -158t-165.5 -61q-98 0 -161.5 58t-69.5 155q-4 136 -8 261t-6.5 206.5t-4.5 143.5t-3 91zM106 -227h78v-88h-78v88zM106 1802v86h78v-86 h-78zM203 -336h78v-86h-78v86zM203 1694v88h78v-88h-78zM231 1051q0 -102 13 -248l86 2l-11 278q-3 56 -45 56q-27 0 -35 -23t-8 -65zM301 -227h78v-88h-78v88zM301 1802v86h78v-86h-78zM395 -336h78v-86h-78v86zM395 1694v88h78v-88h-78zM496 -227h75v-88h-75v88zM496 1802 v86h75v-86h-75z" />
<glyph unicode="&#xeb;" d="M-6 1556l190 -2v-219l-188 2zM0 -156h586v-26h-586v26zM0 -467h586v-29h-586v29zM0 1624v25h586v-25h-586zM0 1937v25h586v-25h-586zM8 -336h78v-86h-78v86zM8 1694v88h78v-88h-78zM47 1061q0 97 65 159t164 62q100 0 164.5 -59.5t67.5 -155.5l12 -389l-272 -10l10 -349 q0 -63 47 -63t47 127q0 29 -8 112t-8 89l186 6q3 -73 5.5 -136.5t3.5 -90.5l1 -27q0 -97 -65.5 -158t-165.5 -61q-98 0 -161.5 58t-69.5 155q-4 136 -8 261t-6.5 206.5t-4.5 143.5t-3 91zM106 -227h78v-88h-78v88zM106 1802v86h78v-86h-78zM203 -336h78v-86h-78v86z M203 1694v88h78v-88h-78zM231 1051q0 -102 13 -248l86 2l-11 278q-3 56 -45 56q-27 0 -35 -23t-8 -65zM301 -227h78v-88h-78v88zM301 1802v86h78v-86h-78zM348 1552l191 -2v-219l-189 2zM395 -336h78v-86h-78v86zM395 1694v88h78v-88h-78zM496 -227h75v-88h-75v88zM496 1802 v86h75v-86h-75z" />
<glyph unicode="&#xec;" horiz-adv-x="389" d="M-90 1540l174 21l170 -234l-96 -12zM0 -156h391v-26h-391v26zM0 -467h391v-29h-391v29zM0 1624v25h391v-25h-391zM0 1937v25h391v-25h-391zM8 -336h78v-86h-78v86zM8 1694v88h78v-88h-78zM80 1245l186 21l117 -1112l-186 -19zM106 -227h78v-88h-78v88zM106 1802v86h78 v-86h-78zM203 -336h78v-86h-78v86zM203 1694v88h78v-88h-78zM301 -227h78v-88h-78v88zM301 1802v86h78v-86h-78z" />
<glyph unicode="&#xed;" horiz-adv-x="389" d="M0 -156h391v-26h-391v26zM0 -467h391v-29h-391v29zM0 1624v25h391v-25h-391zM0 1937v25h391v-25h-391zM8 -336h78v-86h-78v86zM8 1694v88h78v-88h-78zM74 1309l108 266l174 24l-184 -278zM80 1245l186 21l117 -1112l-186 -19zM106 -227h78v-88h-78v88zM106 1802v86h78 v-86h-78zM203 -336h78v-86h-78v86zM203 1694v88h78v-88h-78zM301 -227h78v-88h-78v88zM301 1802v86h78v-86h-78z" />
<glyph unicode="&#xee;" horiz-adv-x="389" d="M-125 1294l184 271l150 14l242 -225l-164 -17l-144 156l-108 -182zM0 -156h391v-26h-391v26zM0 -467h391v-29h-391v29zM0 1624v25h391v-25h-391zM0 1937v25h391v-25h-391zM8 -336h78v-86h-78v86zM8 1694v88h78v-88h-78zM80 1245l186 21l117 -1112l-186 -19zM106 -227h78 v-88h-78v88zM106 1802v86h78v-86h-78zM203 -336h78v-86h-78v86zM203 1694v88h78v-88h-78zM301 -227h78v-88h-78v88zM301 1802v86h78v-86h-78z" />
<glyph unicode="&#xef;" horiz-adv-x="389" d="M-129 1534l190 14l17 -219l-187 -14zM0 -156h391v-26h-391v26zM0 -467h391v-29h-391v29zM0 1624v25h391v-25h-391zM0 1937v25h391v-25h-391zM8 -336h78v-86h-78v86zM8 1694v88h78v-88h-78zM80 1245l186 21l117 -1112l-186 -19zM106 -227h78v-88h-78v88zM106 1802v86h78 v-86h-78zM203 -336h78v-86h-78v86zM203 1694v88h78v-88h-78zM225 1559l189 14l18 -219l-188 -13zM301 -227h78v-88h-78v88zM301 1802v86h78v-86h-78z" />
<glyph unicode="&#xf0;" d="M0 -156h586v-26h-586v26zM0 -467h586v-29h-586v29zM0 1624v25h586v-25h-586zM0 1937v25h586v-25h-586zM8 -336h78v-86h-78v86zM8 1694v88h78v-88h-78zM59 348q0 29 2 45l41 414q5 80 48.5 133t109.5 53q84 0 150 -88l32 334l-116 -57l-27 82l141 67q-6 49 -53 49 q-21 0 -29 -10l-51 180q37 13 76 13q173 0 225 -150l49 25l35 -70l-67 -35q2 -12 2 -37q0 -24 -2 -36l-84 -924q-10 -120 -67.5 -181t-156.5 -61q-258 0 -258 254zM106 -227h78v-88h-78v88zM106 1802v86h78v-86h-78zM203 -336h78v-86h-78v86zM203 1694v88h78v-88h-78z M246 346q0 -76 51 -76q21 0 37 20t20 58l35 363q0 82 -53 82q-52 0 -55 -84zM301 -227h78v-88h-78v88zM301 1802v86h78v-86h-78zM395 -336h78v-86h-78v86zM395 1694v88h78v-88h-78zM496 -227h75v-88h-75v88zM496 1802v86h75v-86h-75z" />
<glyph unicode="&#xf1;" d="M0 -156h586v-26h-586v26zM0 -467h586v-29h-586v29zM0 1624v25h586v-25h-586zM0 1937v25h586v-25h-586zM8 -336h78v-86h-78v86zM8 1694v88h78v-88h-78zM41 127l98 1114l183 -16l-7 -86h4q50 86 132 86q133 0 133 -146q0 -13 -4 -53l-82 -940l-185 14l80 922q0 30 -9 43.5 t-30 13.5q-41 0 -47 -59l-80 -911zM53 1380q71 136 195 136q52 0 92.5 -17.5t73.5 -35t69 -17.5q77 0 117 88l80 -94q-46 -123 -188 -123q-48 0 -117.5 37t-106.5 37q-68 0 -123 -88zM106 -227h78v-88h-78v88zM106 1802v86h78v-86h-78zM203 -336h78v-86h-78v86zM203 1694v88 h78v-88h-78zM301 -227h78v-88h-78v88zM301 1802v86h78v-86h-78zM395 -336h78v-86h-78v86zM395 1694v88h78v-88h-78zM496 -315l2 88h73v-88h-75zM496 1802v86h75v-86h-75z" />
<glyph unicode="&#xf2;" d="M0 -156h586v-26h-586v26zM0 -467h586v-29h-586v29zM0 1624v25h586v-25h-586zM0 1937v25h586v-25h-586zM8 -336h78v-86h-78v86zM8 1694v88h78v-88h-78zM47 1061q0 97 65 159t164 62q100 0 164.5 -59.5t67.5 -155.5q3 -99 6 -192.5t5 -164.5t4 -133.5t4 -105t3 -74t2 -46.5 v-15q0 -97 -65.5 -158t-165.5 -61q-98 0 -161.5 58t-69.5 155q-4 136 -8 261t-6.5 206.5t-4.5 143.5t-3 91zM55 1573h176l144 -250h-99zM106 -227h78v-88h-78v88zM106 1802v86h78v-86h-78zM203 -336h78v-86h-78v86zM203 1694v88h78v-88h-78zM233 1077l25 -764q0 -59 45 -59 q44 0 41 61l-25 768q-3 60 -43 60q-46 0 -43 -66zM301 -227h78v-88h-78v88zM301 1802v86h78v-86h-78zM395 -336h78v-86h-78v86zM395 1694v88h78v-88h-78zM496 -227h75v-88h-75v88zM496 1802v86h75v-86h-75z" />
<glyph unicode="&#xf3;" d="M0 -156h586v-26h-586v26zM0 -467h586v-29h-586v29zM0 1624v25h586v-25h-586zM0 1937v25h586v-25h-586zM8 -336h78v-86h-78v86zM8 1694v88h78v-88h-78zM47 1061q0 97 65 159t164 62q100 0 164.5 -59.5t67.5 -155.5q3 -99 6 -192.5t5 -164.5t4 -133.5t4 -105t3 -74t2 -46.5 v-15q0 -97 -65.5 -158t-165.5 -61q-98 0 -161.5 58t-69.5 155q-4 136 -8 261t-6.5 206.5t-4.5 143.5t-3 91zM106 -227h78v-88h-78v88zM106 1802v86h78v-86h-78zM160 1319l141 252h176l-219 -252h-98zM203 -336h78v-86h-78v86zM203 1694v88h78v-88h-78zM233 1077l25 -764 q0 -59 45 -59q44 0 41 61l-25 768q-3 60 -43 60q-46 0 -43 -66zM301 -227h78v-88h-78v88zM301 1802v86h78v-86h-78zM395 -336h78v-86h-78v86zM395 1694v88h78v-88h-78zM496 -227h75v-88h-75v88zM496 1802v86h75v-86h-75z" />
<glyph unicode="&#xf4;" d="M-27 1307l211 249h152l215 -249h-164l-127 170l-127 -170h-160zM0 -156h586v-26h-586v26zM0 -467h586v-29h-586v29zM0 1624v25h586v-25h-586zM0 1937v25h586v-25h-586zM8 -336h78v-86h-78v86zM8 1694v88h78v-88h-78zM47 1061q0 97 65 159t164 62q100 0 164.5 -59.5 t67.5 -155.5q3 -99 6 -192.5t5 -164.5t4 -133.5t4 -105t3 -74t2 -46.5v-15q0 -97 -65.5 -158t-165.5 -61q-98 0 -161.5 58t-69.5 155q-4 136 -8 261t-6.5 206.5t-4.5 143.5t-3 91zM106 -227h78v-88h-78v88zM106 1802v86h78v-86h-78zM203 -336h78v-86h-78v86zM203 1694v88h78 v-88h-78zM233 1077l25 -764q0 -59 45 -59q44 0 41 61l-25 768q-3 60 -43 60q-46 0 -43 -66zM301 -227h78v-88h-78v88zM301 1802v86h78v-86h-78zM395 -336h78v-86h-78v86zM395 1694v88h78v-88h-78zM496 -227h75v-88h-75v88zM496 1802v86h75v-86h-75z" />
<glyph unicode="&#xf5;" d="M-51 1395q70 135 194 135q52 0 92.5 -17.5t74 -35t69.5 -17.5q77 0 117 88l79 -94q-47 -123 -188 -123q-48 0 -117 37t-106 37q-68 0 -123 -88zM0 -156h586v-26h-586v26zM0 -467h586v-29h-586v29zM0 1624v25h586v-25h-586zM0 1937v25h586v-25h-586zM8 -336h78v-86h-78v86 zM8 1694v88h78v-88h-78zM47 1061q0 97 65 159t164 62q100 0 164.5 -59.5t67.5 -155.5q3 -99 6 -192.5t5 -164.5t4 -133.5t4 -105t3 -74t2 -46.5v-15q0 -97 -65.5 -158t-165.5 -61q-98 0 -161.5 58t-69.5 155q-4 136 -8 261t-6.5 206.5t-4.5 143.5t-3 91zM106 -227h78v-88 h-78v88zM106 1802v86h78v-86h-78zM203 -336h78v-86h-78v86zM203 1694v88h78v-88h-78zM233 1077l25 -764q0 -59 45 -59q44 0 41 61l-25 768q-3 60 -43 60q-46 0 -43 -66zM301 -227h78v-88h-78v88zM301 1802v86h78v-86h-78zM395 -336h78v-86h-78v86zM395 1694v88h78v-88h-78z M496 -227h75v-88h-75v88zM496 1802v86h75v-86h-75z" />
<glyph unicode="&#xf6;" d="M-10 1563l190 -2v-220l-188 2zM0 -156h586v-26h-586v26zM0 -467h586v-29h-586v29zM0 1624v25h586v-25h-586zM0 1937v25h586v-25h-586zM8 -336h78v-86h-78v86zM8 1694v88h78v-88h-78zM47 1061q0 97 65 159t164 62q100 0 164.5 -59.5t67.5 -155.5q3 -99 6 -192.5t5 -164.5 t4 -133.5t4 -105t3 -74t2 -46.5v-15q0 -97 -65.5 -158t-165.5 -61q-98 0 -161.5 58t-69.5 155q-4 136 -8 261t-6.5 206.5t-4.5 143.5t-3 91zM106 -227h78v-88h-78v88zM106 1802v86h78v-86h-78zM203 -336h78v-86h-78v86zM203 1694v88h78v-88h-78zM233 1077l25 -764 q0 -59 45 -59q44 0 41 61l-25 768q-3 60 -43 60q-46 0 -43 -66zM301 -227h78v-88h-78v88zM301 1802v86h78v-86h-78zM344 1559l191 -3v-219l-189 2zM395 -336h78v-86h-78v86zM395 1694v88h78v-88h-78zM496 -227h75v-88h-75v88zM496 1802v86h75v-86h-75z" />
<glyph unicode="&#xf7;" d="M0 -156h586v-26h-586v26zM0 -467h586v-29h-586v29zM0 1624v25h586v-25h-586zM0 1937v25h586v-25h-586zM8 -336h78v-86h-78v86zM8 1694v88h78v-88h-78zM31 889l585 41l7 -80l-588 -41zM106 -227h78v-88h-78v88zM106 1802v86h78v-86h-78zM197 1325l186 10l12 -219l-186 -10 zM203 -336h78v-86h-78v86zM203 1694v88h78v-88h-78zM238 639l184 8l12 -219l-190 -10zM301 -227h78v-88h-78v88zM301 1802v86h78v-86h-78zM395 -336h78v-86h-78v86zM395 1694v88h78v-88h-78zM496 -227h75v-88h-75v88zM496 1802v86h75v-86h-75z" />
<glyph unicode="&#xf8;" d="M-80 307l146 176q-3 107 -6.5 206t-5.5 163.5t-3.5 113.5t-2.5 72l-1 23q0 97 65 159t164 62t165.5 -60t66.5 -155v-37l121 148l63 -43l-180 -211q20 -556 20 -588q0 -97 -65.5 -158t-165.5 -61q-233 0 -233 291l-117 -136zM0 -156h586v-26h-586v26zM0 -467h586v-29h-586 v29zM0 1624v25h586v-25h-586zM0 1937v25h586v-25h-586zM8 -336h78v-86h-78v86zM8 1694v88h78v-88h-78zM106 -227h78v-88h-78v88zM106 1802v86h78v-86h-78zM203 -336h78v-86h-78v86zM203 1694v88h78v-88h-78zM233 1077l13 -370l80 102l-7 274q-1 28 -14 44t-29 16 q-46 0 -43 -66zM248 618l10 -305q3 -59 45 -59q44 0 41 61l-14 400zM301 -227h78v-88h-78v88zM301 1802v86h78v-86h-78zM395 -336h78v-86h-78v86zM395 1694v88h78v-88h-78zM496 -227h75v-88h-75v88zM496 1802v86h75v-86h-75z" />
<glyph unicode="&#xf9;" d="M0 -156h586v-26h-586v26zM0 -467h586v-29h-586v29zM0 1624v25h586v-25h-586zM0 1937v25h586v-25h-586zM8 -336h78v-86h-78v86zM8 1694v88h78v-88h-78zM57 242q0 9 4 59l99 936l182 -16l-96 -924q0 -55 39 -55q41 0 47 59l96 909l186 -18l-116 -1114l-185 18l11 86h-5 q-47 -84 -131 -84q-131 0 -131 144zM106 -227h78v-88h-78v88zM106 1802v86h78v-86h-78zM135 1559h176l144 -250h-99zM203 -336h78v-86h-78v86zM203 1694v88h78v-88h-78zM301 -227h78v-88h-78v88zM301 1802v86h78v-86h-78zM395 -336h78v-86h-78v86zM395 1694v88h78v-88h-78z M496 -227h75v-88h-75v88zM496 1802v86h75v-86h-75z" />
<glyph unicode="&#xfa;" d="M0 -156h586v-26h-586v26zM0 -467h586v-29h-586v29zM0 1624v25h586v-25h-586zM0 1937v25h586v-25h-586zM8 -336h78v-86h-78v86zM8 1694v88h78v-88h-78zM57 242q0 9 4 59l99 936l182 -16l-96 -924q0 -55 39 -55q41 0 47 59l96 909l186 -18l-116 -1114l-185 18l11 86h-5 q-47 -84 -131 -84q-131 0 -131 144zM106 -227h78v-88h-78v88zM106 1802v86h78v-86h-78zM203 -336h78v-86h-78v86zM203 1694v88h78v-88h-78zM301 -227h78v-88h-78v88zM301 1802v86h78v-86h-78zM317 1278l142 252h176l-219 -252h-99zM395 -336h78v-86h-78v86zM395 1694v88h78 v-88h-78zM496 -227h75v-88h-75v88zM496 1802v86h75v-86h-75z" />
<glyph unicode="&#xfb;" d="M0 -156h586v-26h-586v26zM0 -467h586v-29h-586v29zM0 1624v25h586v-25h-586zM0 1937v25h586v-25h-586zM8 -336h78v-86h-78v86zM8 1694v88h78v-88h-78zM57 242q0 9 4 59l99 936l182 -16l-96 -924q0 -55 39 -55q41 0 47 59l96 909l186 -18l-116 -1114l-185 18l11 86h-5 q-47 -84 -131 -84q-131 0 -131 144zM106 -227h78v-88h-78v88zM106 1802v86h78v-86h-78zM127 1323l238 227l149 -16l188 -270l-163 16l-109 182l-143 -155zM203 -336h78v-86h-78v86zM203 1694v88h78v-88h-78zM301 -227h78v-88h-78v88zM301 1802v86h78v-86h-78zM395 -336h78 v-86h-78v86zM395 1694v88h78v-88h-78zM496 -227h75v-88h-75v88zM496 1802v86h75v-86h-75z" />
<glyph unicode="&#xfc;" d="M0 -156h586v-26h-586v26zM0 -467h586v-29h-586v29zM0 1624v25h586v-25h-586zM0 1937v25h586v-25h-586zM8 -336h78v-86h-78v86zM8 1694v88h78v-88h-78zM57 242q0 9 4 59l99 936l182 -16l-96 -924q0 -55 39 -55q41 0 47 59l96 909l186 -18l-116 -1114l-185 18l11 86h-5 q-47 -84 -131 -84q-131 0 -131 144zM106 -227h78v-88h-78v88zM106 1802v86h78v-86h-78zM160 1317l16 219l191 -20l-21 -218zM203 -336h78v-86h-78v86zM203 1694v88h78v-88h-78zM301 -227h78v-88h-78v88zM301 1802v86h78v-86h-78zM395 -336h78v-86h-78v86zM395 1694v88h78 v-88h-78zM444 1286l19 217l188 -18l-18 -219zM496 -227h75v-88h-75v88zM496 1802v86h75v-86h-75z" />
<glyph unicode="&#xfd;" d="M0 -68l27 154q49 -14 73 -14q53 0 56 71l20 1151l193 -30l-62 -922l219 895l176 -27l-331 -1110q-33 -109 -73 -151.5t-105 -42.5q-33 0 -193 26zM0 -156h586v-26h-586v26zM0 -467h586v-29h-586v29zM0 1624v25h586v-25h-586zM0 1937v25h586v-25h-586zM8 -336h78v-86h-78 v86zM8 1694v88h78v-88h-78zM106 -227h78v-88h-78v88zM106 1802v86h78v-86h-78zM203 -336h78v-86h-78v86zM203 1694v88h78v-88h-78zM301 -227h78v-88h-78v88zM301 1802v86h78v-86h-78zM383 1290l141 252h176l-219 -252h-98zM395 -336h78v-86h-78v86zM395 1694v88h78v-88h-78z M496 -227h75v-88h-75v88zM496 1802v86h75v-86h-75z" />
<glyph unicode="&#xfe;" d="M0 -121l236 1630l186 -24l-49 -359h2q50 80 127 80q125 0 125 -170q0 -37 -2 -57l-105 -737q-24 -183 -147 -183q-101 0 -135 123l-2 2l-54 -331zM0 -156h586v-26h-586v26zM0 -467h586v-29h-586v29zM0 1624v25h586v-25h-586zM0 1937v25h586v-25h-586zM8 -336h78v-86h-78 v86zM8 1694v88h78v-88h-78zM106 -227h78v-88h-78v88zM106 1802v86h78v-86h-78zM203 -336h78v-86h-78v86zM203 1694v88h78v-88h-78zM256 295q0 -59 37 -59q7 0 15.5 3t18.5 16.5t13 35.5l100 717q0 28 -8.5 40.5t-30.5 12.5q-38 0 -47 -55q-98 -575 -98 -711zM301 -227h78 v-88h-78v88zM301 1802v86h78v-86h-78zM395 -336h78v-86h-78v86zM395 1694v88h78v-88h-78zM496 -227h75v-88h-75v88zM496 1802v86h75v-86h-75z" />
<glyph unicode="&#xff;" d="M-61 -68l26 154q49 -14 74 -14q52 0 55 71l21 1151l192 -30l-61 -922l219 895l176 -27l-332 -1110q-33 -109 -73 -151.5t-105 -42.5q-32 0 -192 26zM0 -156h586v-26h-586v26zM0 -467h586v-29h-586v29zM0 1624v25h586v-25h-586zM0 1937v25h586v-25h-586zM8 -336h78v-86 h-78v86zM8 1694v88h78v-88h-78zM106 -227h78v-88h-78v88zM106 1802v86h78v-86h-78zM129 1374l23 217l190 -24l-27 -217zM203 -336h78v-86h-78v86zM203 1694v88h78v-88h-78zM301 -227h78v-88h-78v88zM301 1802v86h78v-86h-78zM395 -336h78v-86h-78v86zM395 1694v88h78v-88 h-78zM479 1329l25 217l188 -24l-24 -217zM496 -227h75v-88h-75v88zM496 1802v86h75v-86h-75z" />
<glyph unicode="&#x152;" horiz-adv-x="972" d="M0 -156h973v-26h-973v26zM0 -467h973v-29h-973v29zM0 1624v25h973v-25h-973zM0 1937v25h973v-25h-973zM8 -336h78v-86h-78v86zM8 1694v88h78v-88h-78zM29 332q0 20 2 30l80 920q8 110 82 179t186 69q109 0 186 -68l4 54l459 -50l-20 -190l-252 27l-35 -351l246 -24 l-21 -183l-248 27l-49 -479l252 -27l-20 -190l-410 43q-70 -58 -170 -58q-117 0 -194.5 77t-77.5 194zM106 -227h78v-88h-78v88zM106 1802v86h78v-86h-78zM203 -336h78v-86h-78v86zM203 1694v88h78v-88h-78zM238 322q0 -41 13 -60.5t44 -19.5q59 0 65 82l82 958q0 78 -57 78 t-63 -80zM297 -227h82v-88h-78zM301 1802v86h78v-86h-78zM395 -336h78v-86h-78v86zM395 1694v88h78v-88h-78zM496 -227h75v-88h-75v88zM496 1802v86h75v-86h-75zM590 -336h78v-86h-78v86zM590 1694v88h78v-88h-78zM688 -227h78v-88h-78v88zM688 1802v86h78v-86h-78z M766 1782h96v-88h-78zM784 -336h78v-86h-78v86zM883 -227h78v-88h-78v88zM883 1802v86h78v-86h-78z" />
<glyph unicode="&#x153;" horiz-adv-x="972" d="M0 -156h973v-26h-973v26zM0 -467h973v-29h-973v29zM0 1624v25h973v-25h-973zM0 1937v25h973v-25h-973zM8 -336h78v-86h-78v86zM8 1694v88h78v-88h-78zM47 1061q0 97 65 159t164 62q129 0 195 -96q63 96 195 96q98 0 163 -59.5t68 -155.5l12 -389l-272 -10l10 -349 q0 -33 10.5 -48t36.5 -15q47 0 47 127q0 29 -8 112t-8 89l186 6q2 -46 3.5 -89.5t3 -71.5t2.5 -50t2 -33v-10q0 -97 -67 -158t-167 -61q-120 0 -192 92l-29 -33q-68 -59 -166 -59t-161.5 58t-69.5 155q-4 136 -8 261t-6.5 206.5t-4.5 143.5t-3 91zM106 -227h78v-88h-78v88z M106 1802v86h78v-86h-78zM203 -336h78v-86h-78v86zM203 1694v88h78v-88h-78zM233 1077l25 -764q0 -59 45 -59q44 0 41 61l-25 768q-3 60 -43 60q-46 0 -43 -66zM297 -227h82v-88h-78zM301 1802v86h78v-86h-78zM395 -336h78v-86h-78v86zM395 1694v88h78v-88h-78zM496 -227h75 v-88h-75v88zM496 1802v86h75v-86h-75zM590 -336h78v-86h-78v86zM590 1694v88h78v-88h-78zM616 1018q0 -12 1 -28t2 -39t2 -40l12 -108l84 2l-10 278q-3 56 -43 56l-35 -13q-13 -47 -13 -108zM688 -227h78v-88h-78v88zM688 1802v86h78v-86h-78zM784 -336h78v-86h-78v86z M784 1694v88h78v-88h-78zM883 -227h78v-88h-78v88zM883 1802v86h78v-86h-78z" />
<glyph unicode="&#x178;" d="M0 -156h586v-26h-586v26zM0 -467h586v-29h-586v29zM0 1624v25h586v-25h-586zM0 1937v25h586v-25h-586zM8 -336h78v-86h-78v86zM8 1694v88h78v-88h-78zM33 1300l205 -18l63 -616l168 596l195 -17l-289 -852l-45 -522l-213 18l28 349q15 176 15 208q0 17 -10 82.5 t-20 121.5l-11 57zM88 1354l18 219l189 -21l-21 -219zM106 -227h78v-88h-78v88zM106 1802v86h78v-86h-78zM203 -336h78v-86h-78v86zM203 1694v88h78v-88h-78zM301 -227h78v-88h-78v88zM301 1802v86h78v-86h-78zM395 -336h78v-86h-78v86zM395 1694v88h78v-88h-78zM440 1315 l19 219l188 -21l-20 -219zM496 -227h75v-88h-75v88zM496 1802v86h75v-86h-75z" />
<glyph unicode="&#x2c6;" horiz-adv-x="698" d="M59 1198l211 250h152l215 -250h-164l-127 170l-127 -170h-160z" />
<glyph unicode="&#x2dc;" horiz-adv-x="811" d="M90 1266q70 135 195 135q52 0 92.5 -17.5t73.5 -35t69 -17.5q77 0 117 88l80 -94q-47 -123 -189 -123q-48 0 -117 37t-106 37q-68 0 -123 -88z" />
<glyph unicode="&#x2000;" horiz-adv-x="981" />
<glyph unicode="&#x2001;" horiz-adv-x="1962" />
<glyph unicode="&#x2002;" horiz-adv-x="981" />
<glyph unicode="&#x2003;" horiz-adv-x="1962" />
<glyph unicode="&#x2004;" horiz-adv-x="654" />
<glyph unicode="&#x2005;" horiz-adv-x="490" />
<glyph unicode="&#x2006;" horiz-adv-x="327" />
<glyph unicode="&#x2007;" horiz-adv-x="327" />
<glyph unicode="&#x2008;" horiz-adv-x="245" />
<glyph unicode="&#x2009;" horiz-adv-x="392" />
<glyph unicode="&#x200a;" horiz-adv-x="109" />
<glyph unicode="&#x2010;" horiz-adv-x="389" d="M0 -156h391v-26h-391v26zM0 -467h391v-29h-391v29zM0 1624v25h391v-25h-391zM0 1937v25h391v-25h-391zM8 -336h78v-86h-78v86zM8 1694v88h78v-88h-78zM86 610l4 148l246 -17l-10 -147zM106 -227h78v-88h-78v88zM106 1802v86h78v-86h-78zM203 -336h78v-86h-78v86z M203 1694v88h78v-88h-78zM301 -227h78v-88h-78v88zM301 1802v86h78v-86h-78z" />
<glyph unicode="&#x2011;" horiz-adv-x="389" d="M0 -156h391v-26h-391v26zM0 -467h391v-29h-391v29zM0 1624v25h391v-25h-391zM0 1937v25h391v-25h-391zM8 -336h78v-86h-78v86zM8 1694v88h78v-88h-78zM86 610l4 148l246 -17l-10 -147zM106 -227h78v-88h-78v88zM106 1802v86h78v-86h-78zM203 -336h78v-86h-78v86z M203 1694v88h78v-88h-78zM301 -227h78v-88h-78v88zM301 1802v86h78v-86h-78z" />
<glyph unicode="&#x2012;" horiz-adv-x="389" d="M0 -156h391v-26h-391v26zM0 -467h391v-29h-391v29zM0 1624v25h391v-25h-391zM0 1937v25h391v-25h-391zM8 -336h78v-86h-78v86zM8 1694v88h78v-88h-78zM86 610l4 148l246 -17l-10 -147zM106 -227h78v-88h-78v88zM106 1802v86h78v-86h-78zM203 -336h78v-86h-78v86z M203 1694v88h78v-88h-78zM301 -227h78v-88h-78v88zM301 1802v86h78v-86h-78z" />
<glyph unicode="&#x2013;" horiz-adv-x="778" d="M0 -156h780v-26h-780v26zM0 -467h780v-29h-780v29zM0 1624v25h780v-25h-780zM0 1937v25h780v-25h-780zM8 -336h78v-86h-78v86zM8 1694v88h78v-88h-78zM86 610l4 148l635 -17l-10 -147zM106 -227h78v-88h-78v88zM106 1802v86h78v-86h-78zM203 -336h78v-86h-78v86z M203 1694v88h78v-88h-78zM301 -227h78v-88h-78v88zM301 1802v86h78v-86h-78zM397 -336h78v-86h-78v86zM397 1694v88h78v-88h-78zM496 -227h77v-88h-77v88zM496 1802v86h77v-86h-77zM592 -336h78v-86h-78v86zM592 1694v88h78v-88h-78zM690 -227h78v-88h-78v88zM690 1802v86 h78v-86h-78z" />
<glyph unicode="&#x2014;" horiz-adv-x="1167" d="M0 -156h1169v-26h-1169v26zM0 -467h1169v-29h-1169v29zM0 1624v25h1169v-25h-1169zM0 1937v25h1169v-25h-1169zM8 -336h78v-86h-78v86zM8 1694v88h78v-88h-78zM86 610l4 148l1024 -17l-10 -147zM106 -227h78v-88h-78v88zM106 1802v86h78v-86h-78zM203 -336h78v-86h-78v86 zM203 1694v88h78v-88h-78zM301 -227h78v-88h-78v88zM301 1802v86h78v-86h-78zM397 -336h78v-86h-78v86zM397 1694v88h78v-88h-78zM496 -227h77v-88h-77v88zM496 1802v86h77v-86h-77zM592 -336h78v-86h-78v86zM592 1694v88h78v-88h-78zM690 -227h78v-88h-78v88zM690 1802v86 h78v-86h-78zM786 -336h78v-86h-78v86zM786 1694v88h78v-88h-78zM885 -227h78v-88h-78v88zM885 1802v86h78v-86h-78zM981 -336h78v-86h-78v86zM981 1694v88h78v-88h-78zM1079 -227h78v-88h-78v88zM1079 1802v86h78v-86h-78z" />
<glyph unicode="&#x2018;" horiz-adv-x="389" d="M0 -154h391v-28h-391v28zM0 -467h391v-29h-391v29zM0 1624v25h391v-25h-391zM0 1935v27h391v-27h-391zM8 -336h78v-86h-78v86zM8 1694v86h78v-86h-78zM104 -227h78v-88h-78v88zM104 1802v86h78v-86h-78zM109 1516l163 -39l41 -514l-166 43zM203 -336h78v-86h-78v86z M203 1694v86h78v-86h-78zM297 -227h78v-88h-78v88zM297 1802v86h78v-86h-78z" />
<glyph unicode="&#x2019;" horiz-adv-x="389" d="M0 -154h391v-28h-391v28zM0 -467h391v-29h-391v29zM0 1624v25h391v-25h-391zM0 1935v27h391v-27h-391zM8 -336h78v-86h-78v86zM8 1694v86h78v-86h-78zM23 1008l231 503l145 -43l-231 -507zM104 -227h78v-88h-78v88zM104 1802v86h78v-86h-78zM203 -336h78v-86h-78v86z M203 1694v86h78v-86h-78zM297 -227h78v-88h-78v88zM297 1802v86h78v-86h-78z" />
<glyph unicode="&#x201a;" horiz-adv-x="389" d="M0 -154h391v-28h-391v28zM0 -467h391v-29h-391v29zM0 1624v25h391v-25h-391zM0 1935v27h391v-27h-391zM8 -336h78v-86h-78v86zM8 1694v86h78v-86h-78zM29 -78l229 506l145 -45l-229 -508zM104 -227h78v-88h-78v88zM104 1802v86h78v-86h-78zM203 -336h78v-86h-78v86z M203 1694v86h78v-86h-78zM297 -227h78v-88h-78v88zM297 1802v86h78v-86h-78z" />
<glyph unicode="&#x201c;" d="M0 -154h586v-28h-586v28zM0 -467h586v-29h-586v29zM0 1624v25h586v-25h-586zM0 1935v27h586v-27h-586zM8 -336h78v-86h-78v86zM8 1694v86h78v-86h-78zM49 1495l156 6l131 -528l-152 -6zM104 -227h78v-88h-78v88zM104 1802v86h78v-86h-78zM203 -336h78v-86h-78v86z M203 1694v86h78v-86h-78zM297 -227h78v-88h-78v88zM297 1802v86h78v-86h-78zM340 1507l152 9l135 -529l-156 -8zM395 -336h78v-86h-78v86zM395 1694v86h78v-86h-78zM492 -227h77v-88h-77v88zM492 1802v86h77v-86h-77z" />
<glyph unicode="&#x201d;" d="M0 -154h586v-28h-586v28zM0 -467h586v-29h-586v29zM0 1624v25h586v-25h-586zM0 1935v27h586v-27h-586zM8 -336h78v-86h-78v86zM8 1694v86h78v-86h-78zM49 961l150 528l157 10l-149 -528zM104 -227h78v-88h-78v88zM104 1802v86h78v-86h-78zM203 -336h78v-86h-78v86z M203 1694v86h78v-86h-78zM297 -227h78v-88h-78v88zM297 1802v86h78v-86h-78zM346 981l152 528l157 11l-149 -525zM395 -336h78v-86h-78v86zM395 1694v86h78v-86h-78zM492 -227h77v-88h-77v88zM492 1802v86h77v-86h-77z" />
<glyph unicode="&#x201e;" d="M-12 -119l149 529l158 10l-150 -529zM0 -154h586v-28h-586v28zM0 -467h586v-29h-586v29zM0 1624v25h586v-25h-586zM0 1935v27h586v-27h-586zM8 -336h78v-86h-78v86zM8 1694v86h78v-86h-78zM104 -227h78v-88h-78v88zM104 1802v86h78v-86h-78zM203 -336h78v-86h-78v86z M203 1694v86h78v-86h-78zM285 -98l149 528l160 10l-152 -526zM297 -227h78v-88h-78v88zM297 1802v86h78v-86h-78zM395 -336h78v-86h-78v86zM395 1694v86h78v-86h-78zM492 -227h77v-88h-77v88zM492 1802v86h77v-86h-77z" />
<glyph unicode="&#x2026;" d="M-51 248l49 215l184 -41l-51 -217zM0 -156h586v-26h-586v26zM0 -467h586v-29h-586v29zM0 1624v25h586v-25h-586zM0 1937v25h586v-25h-586zM8 -336h78v-86h-78v86zM8 1694v88h78v-88h-78zM106 -227h78v-88h-78v88zM106 1802v86h78v-86h-78zM203 -336h78v-86h-78v86z M203 1694v88h78v-88h-78zM205 176l49 217l184 -43l-49 -215zM301 -227h78v-88h-78v88zM301 1802v86h78v-86h-78zM395 -336h78v-86h-78v86zM395 1694v88h78v-88h-78zM463 117l49 215l184 -45l-51 -215zM496 -227h75v-88h-75v88zM496 1802v86h75v-86h-75z" />
<glyph unicode="&#x202f;" horiz-adv-x="392" />
<glyph unicode="&#x2039;" d="M0 -156h586v-26h-586v26zM0 -467h586v-29h-586v29zM0 1624v25h586v-25h-586zM0 1937v25h586v-25h-586zM8 -336h78v-86h-78v86zM8 1694v88h78v-88h-78zM106 -227h78v-88h-78v88zM106 1802v86h78v-86h-78zM150 803l235 205l12 -144l-157 -127l174 -100l12 -148l-266 175z M203 -336h78v-86h-78v86zM203 1694v88h78v-88h-78zM301 -227h78v-88h-78v88zM301 1802v86h78v-86h-78zM395 -336h78v-86h-78v86zM395 1694v88h78v-88h-78zM496 -227h75v-88h-75v88zM496 1802v86h75v-86h-75z" />
<glyph unicode="&#x203a;" d="M0 -156h586v-26h-586v26zM0 -467h586v-29h-586v29zM0 1624v25h586v-25h-586zM0 1937v25h586v-25h-586zM8 -336h78v-86h-78v86zM8 1694v88h78v-88h-78zM106 -227h78v-88h-78v88zM106 1802v86h78v-86h-78zM150 487l6 150l170 106l-162 121l6 144l244 -197l-4 -139z M203 -336h78v-86h-78v86zM203 1694v88h78v-88h-78zM301 -227h78v-88h-78v88zM301 1802v86h78v-86h-78zM395 -336h78v-86h-78v86zM395 1694v88h78v-88h-78zM496 -227h75v-88h-75v88zM496 1802v86h75v-86h-75z" />
<glyph unicode="&#x205f;" horiz-adv-x="490" />
<glyph unicode="&#x20ac;" d="M-76 692l51 80l80 -8l6 90l-108 14l59 82l58 -4l36 334q12 120 73 179t177 59q170 0 242 -97l-66 -166q-58 99 -151 99q-29 0 -43 -19.5t-19 -60.5l-36 -350l120 -13l-34 -96l-95 8l-12 -78l78 -8l-29 -88l-57 6l-37 -340q0 -41 13 -60t44 -19q57 0 66 98l178 -135 q-15 -26 -29 -44.5t-41.5 -44t-69.5 -39.5t-95 -14q-118 0 -196.5 75.5t-78.5 191.5q0 24 2 36l37 318zM0 -156h586v-26h-586v26zM0 -467h586v-29h-586v29zM0 1624v25h586v-25h-586zM0 1937v25h586v-25h-586zM8 -336h78v-86h-78v86zM8 1694v88h78v-88h-78zM106 -227h78v-88 h-78v88zM106 1802v86h78v-86h-78zM203 -336h78v-86h-78v86zM203 1694v88h78v-88h-78zM297 -227h82v-88h-78zM301 1802v86h78v-86h-78zM395 -336h78v-86h-78v86zM395 1694v88h78v-88h-78zM496 -227h75v-88h-75v88zM496 1802v86h75v-86h-75z" />
<glyph unicode="&#x2122;" horiz-adv-x="1452" d="M111 1253v140h516v-140h-178v-577h-154v577h-184zM692 678v719h172l137 -371l136 371h168v-719h-146v393l-153 -397l-172 413v-409h-142z" />
</font>
</defs>
</svg>
